<?xml version="1.0" encoding="utf-8"?>
<!-- Generator: Adobe Illustrator 27.5.0, SVG Export Plug-In . SVG Version: 6.00 Build 0)  -->
<svg version="1.1" id="Layer_1" xmlns="http://www.w3.org/2000/svg"
    xmlns:xlink="http://www.w3.org/1999/xlink" x="0px" y="0px"
    viewBox="0 0 4000 4000" style="enable-background:new 0 0 4000 4000;" xml:space="preserve">
<g>
	<g>
		<g>
			<rect style="fill:#FFB592;" width="4000" height="4000"/>
		</g>
	</g>
	<g>
		<g>
			<g>
				<g>
					<path style="fill:#F5AF41;" d="M2731.354,3201.814c-41.824,260.426-343.641,406.738-741.86,342.774
						c-159.018-25.556-292.961-78.113-393.791-148.67c-24.738-17.278-47.456-35.615-68.103-55.011
						c-105.884-99.098-156.323-223.222-135.29-354.133c13.813-85.814,56.311-158.729,121.333-215.666
						c132.355-115.894,358.08-165.564,625.051-122.681c358.994,57.658,586.355,249.452,596.992,477.487
						C2736.889,3150.845,2735.493,3176.161,2731.354,3201.814z"/>
				</g>
			</g>
			<g style="opacity:0.55;">
				<g>
					<path style="fill:#FFFFFF;" d="M2304.258,2687.17c-39.658-10.829-81.434-19.828-125.135-26.856
						c-266.971-42.883-492.696,6.786-625.051,122.681c-65.022,56.936-107.52,129.852-121.334,215.666
						c-35.711,222.404,134.761,425.172,433.305,519.408c-323.475-88.22-511.033-299.025-473.733-531.296
						c13.813-85.814,56.311-158.729,121.333-215.666c132.355-115.894,358.08-165.564,625.051-122.681
						C2197.556,2657.86,2252.856,2670.952,2304.258,2687.17z"/>
				</g>
			</g>
			<g style="opacity:0.4;">
				<g>
					<path style="fill:#650000;" d="M2624.941,2939.174c-24.931-26.905-53.808-52.22-86.344-75.611
						c-100.782-72.434-236.698-126.338-399.904-152.569c-266.971-42.883-492.696,6.786-625.051,122.681
						c-62.664,78.884-55.926,151.943,6.786,220.286c15.209,16.557,22.476,39.13,19.685,61.413
						c-1.877,15.257-5.727,31.332-10.396,47.744c-22.429,63.867,35.711,116.906,97.076,62.183
						c15.594-11.743,31.428-20.792,47.551-27.193c35.471-4.909,65.118,1.492,89.472,22.236
						c22.669,19.203,40.813,50.728,54.915,96.932c1.829,6.112,3.658,12.465,5.391,19.107
						c39.321,89.039,141.211,91.974,208.543,40.139c36.049-23.583,76.187-9.481,119.552,34.028
						c53.713,47.792,100.397,11.31,155.601-54.916c3.08,1.54,6.161,3.129,9.24,4.765c15.361,8.186,29.709,17.961,43.046,29.037
						c17.008,14.125,11.89,41.463-8.955,48.831c-123.117,43.513-277.664,55.307-450.358,27.583
						c-96.313-15.49-183.457-40.87-259.603-74.198c-22.393-9.801-37.393-31.758-37.796-56.199
						c-0.981-59.451-38.589-48.354-38.589-48.354l-32.439,46.926l-4.765,6.883c14.583,13.717,30.225,26.904,46.926,39.562
						c1.925,1.492,3.85,2.936,5.823,4.427c5.006,3.706,10.155,7.364,15.354,11.022c100.83,70.557,234.773,123.114,393.791,148.67
						c375.454,60.306,665.239-66.321,732.138-299.314c4.091-14.101,7.316-28.588,9.722-43.46c1.492-9.193,2.599-18.337,3.369-27.434
						C2727.359,3088.711,2689.193,3008.576,2624.941,2939.174z M2399.264,3091.839c-341.716,112.381-525.328-95.151-525.328-95.151
						c0-86.247,138.371-98.761,187.944-49.332c41.198,43.845,81.338,68.054,118.397,36.097
						c26.182-17.375,52.268-20.744,78.258-1.251c11.31,8.471,24.882,13.476,39.032,13.043
						C2357.825,2993.319,2412.114,3008.095,2399.264,3091.839z"/>
				</g>
			</g>
			<g style="opacity:0.4;">
				<g>
					<path style="fill:#792937;" d="M2734.723,3174.38c-7.364-85.669-45.53-165.804-109.782-235.206
						c-18-48.755-46.589-94.863-84.707-137.024c119.985,86.777,189.676,199.928,195.452,323.764
						C2736.456,3141.893,2736.167,3158.065,2734.723,3174.38z"/>
				</g>
				<g>
					<path style="fill:#650000;" d="M2737.12,3174.591l-4.795-0.007c-7.183-83.564-44.925-164.404-109.15-233.774l-0.491-0.803
						c-17.836-48.306-46.175-94.143-84.234-136.243l-15.343-16.97l18.538,13.406c120.967,87.488,190.732,203.123,196.445,325.603
						C2738.873,3142.055,2738.547,3158.471,2737.12,3174.591z M2627.032,2937.89c57.736,62.483,94.249,134.185,106.641,208.884
						c0.072-6.921-0.059-13.848-0.391-20.745c-5.357-114.846-67.85-223.687-176.605-308.521
						C2587.733,2855.189,2611.355,2895.592,2627.032,2937.89z"/>
				</g>
			</g>
			<g>
				<g>
					<g>
						<path style="fill:#650000;" d="M2538.597,2800.996c-100.782-72.434-236.698-126.339-399.904-152.569
							c-266.971-42.883-492.696,6.786-625.051,122.681c-62.664,78.884-55.926,151.943,6.786,220.286
							c15.209,16.557,22.476,39.129,19.685,61.413c-1.877,15.257-5.727,31.332-10.396,47.744
							c-22.429,63.867,35.711,116.906,97.076,62.183c15.594-11.743,31.428-20.792,47.551-27.193
							c35.471-4.909,65.118,1.492,89.472,22.236c22.669,19.203,40.813,50.728,54.915,96.932c1.829,6.113,3.658,12.465,5.391,19.107
							c39.321,89.039,141.211,91.974,208.543,40.139c36.049-23.583,76.187-9.481,119.552,34.028
							c53.713,47.792,100.397,11.31,155.601-54.915c3.08,1.54,6.161,3.128,9.24,4.765c33.354,17.711,61.895,43.075,85.622,72.53
							c45.867,56.888,89.424,34.027,126.098-43.028c19.204-40.331,57.274-67.862,101.119-76.476
							c57.226-11.263,97.895-45.482,105.788-124.943C2729.862,3001.501,2659.594,2887.916,2538.597,2800.996z M2061.88,2884.788
							c41.198,43.845,81.338,68.054,118.397,36.097c26.182-17.375,52.268-20.744,78.258-1.251
							c11.31,8.471,24.882,13.476,39.032,13.043c60.258-1.925,114.547,12.851,101.697,96.595
							c-341.716,112.381-525.328-95.151-525.328-95.151C1873.936,2847.873,2012.307,2835.36,2061.88,2884.788z"/>
					</g>
				</g>
			</g>
			<g style="opacity:0.4;">
				<g>
					<g>
						<path style="fill:#792937;" d="M2734.723,3174.38c-0.77,9.097-1.876,18.241-3.369,27.434
							c-2.406,14.872-5.631,29.359-9.722,43.46c7.027-15.642,11.84-34.412,14.054-56.792
							C2735.445,3183.765,2735.156,3179.049,2734.723,3174.38z"/>
					</g>
					<g>
						<path style="fill:#650000;" d="M2723.827,3246.261l-4.506-1.658c4.007-13.811,7.257-28.337,9.657-43.174
							c1.444-8.889,2.57-18.059,3.347-27.253l4.794-0.02c0.436,4.702,0.728,9.453,0.971,14.204
							C2735.908,3210.685,2731.112,3230.043,2723.827,3246.261z"/>
					</g>
				</g>
			</g>
			<g style="opacity:0.55;">
				<g>
					<g>
						<path style="fill:#FFFFFF;" d="M1543.579,3029.512c-1.925-2.118-3.802-4.236-5.631-6.353
							c2.647,9.578,3.417,19.636,2.166,29.647c-1.877,15.257-5.727,31.332-10.396,47.744c-11.6,33.017-1.685,63.097,19.107,76.911
							c-1.878-11.792-0.77-25.027,4.043-38.792c4.668-16.412,8.518-32.487,10.396-47.744
							C1566.055,3068.641,1558.788,3046.069,1543.579,3029.512z M2399.505,2987.352c2.214,11.551,2.31,25.412-0.241,41.92
							c-269.041,88.461-440.043-21.321-500.638-72.049c-1.011,4.717-1.541,9.722-1.541,15.016c0,0,98.924,183.69,426.776,124.122
							c19.154-3.48,39.028-9.894,59.725-16.689c38.8-12.737,50.321-63.652,19.025-89.887
							C2401.606,2988.94,2400.569,2988.13,2399.505,2987.352z M2138.694,2648.427c-266.971-42.883-492.696,6.786-625.051,122.681
							c-57.273,72.097-56.552,139.381-8.134,202.575c-23.295-51.979-14.631-106.653,31.284-164.456
							c132.355-115.895,358.079-165.564,625.051-122.681c250.078,40.187,436.29,145.446,529.804,282.709
							C2608.24,2813.509,2411.489,2692.224,2138.694,2648.427z"/>
					</g>
				</g>
			</g>
			<g style="opacity:0.55;">
				<g>
					<g>
						<path style="fill:#FFFFFF;" d="M1520.429,2991.394c-5.391-5.872-10.348-11.743-14.92-17.711
							c7.556,16.749,18.385,33.257,32.439,49.477C1534.772,3011.464,1528.804,3000.539,1520.429,2991.394z"/>
					</g>
					<g>
						<path style="fill:#650000;" d="M1543.035,3032.702l-6.906-7.969c-14.158-16.338-25.198-33.181-32.814-50.061l-8.568-18.989
							l12.672,16.536c4.504,5.879,9.34,11.619,14.782,17.546l0.002,0.002c8.527,9.314,14.774,20.642,18.066,32.761
							L1543.035,3032.702z M1518.439,2992.782c3.578,5.791,7.563,11.56,11.94,17.283c-3.091-6.174-7.04-11.931-11.721-17.043l0,0
							C1518.584,2992.941,1518.511,2992.863,1518.439,2992.782z"/>
					</g>
				</g>
			</g>
			<g>
				<g>
					<g>
						<path style="fill:#FFFFFF;" d="M2721.295,3040.87v89.665c-14.679-136.639-178.558-84.611-329.105-0.771
							c-4.043,2.262-7.749-3.272-4.14-6.16C2517.373,3019.405,2628.214,2992.838,2721.295,3040.87z"/>
					</g>
				</g>
				<g>
					<g>
						<path style="fill:#FFFFFF;" d="M2224.797,3075.086c-54.676,68.057-117.916,186.655,0,127.354l145.59-68.46
							c0,0-116.713,86.508-185.297,112.979c-52.942,14.781-111.9-33.69-6.016-171.873"/>
					</g>
				</g>
				<g>
					<g>
						<path style="fill:#FFFFFF;" d="M2263.108,2922.774c0,0-5.222-34.376,28.468-50.62c165.443-91.445,250.129-0.607,133.257,84.18
							l0.293,23.591c129.334-81.205,95.001-178.372-30.674-160.111c-76.419,14.08-138.664,44.559-188.894,88.938"/>
					</g>
				</g>
				<g>
					<g>
						<path style="fill:#FFFFFF;" d="M2007.714,3029.265c-138.671,78.521-270.832,38.458-236.533-32.978
							c0,0,24.538-49.827,110.131-51.786l-24.064-23.616c-212.005,64.974-120.791,220.349,92.812,160.43l104.616-35.597"/>
					</g>
				</g>
				<g>
					<g>
						<path style="fill:#FFFFFF;" d="M2015.313,2855.93c61.564-20.382,153.511-77.416,110.726-114.556
							c-6.667-5.787-14.938-9.375-23.611-11.028c-19.317-3.68-61.898-6.962-115.469,18.076l0-24.866
							c63.122-13.329,137.547-23.04,160.602,20.05c8.423,15.742,6.954,34.943-2.214,50.263
							c-10.494,17.535-24.314,35.755-41.542,46.907c-16.237,10.51-25.767,31.416-24.82,50.441"/>
					</g>
				</g>
				<g>
					<g>
						<path style="fill:#FFFFFF;" d="M1886.691,2806.178c0,0-11.23-10.89-48.129,11.4c-81.759,62.349-203.567,108.299-223.426,48.47
							c-1.812-5.458,4.508-10.16,9.153-6.769c53.603,39.13,163.45-30.85,248.566-99.024"/>
					</g>
				</g>
			</g>
			<g>
				<g>
					<path style="fill:#650000;" d="M2171.446,3574.154c-58.94,0-120.544-5.081-184.23-15.31
						c-196.984-31.638-359.929-103.909-471.22-209.001c-110.086-103.953-159.067-233.713-137.919-365.378
						c21.08-131.245,109.09-238.374,247.817-301.65c137.363-62.654,320.298-79.927,515.112-48.635
						c196.996,31.641,359.153,103.142,468.94,206.772c108.619,102.529,156.792,231.501,135.644,363.159
						c-21.147,131.665-108.301,239.561-245.405,303.811C2406.394,3551.876,2294.811,3574.154,2171.446,3574.154z M1955.442,2647.802
						c-119.506,0-228.657,20.735-317.563,61.287c-129.651,59.136-211.791,158.56-231.289,279.956
						c-19.586,121.936,26.31,242.615,129.233,339.805c105.532,99.651,267.466,171.206,455.974,201.484
						c188.507,30.273,364.704,13.032,496.136-48.56c128.182-60.068,209.562-160.305,229.148-282.244
						c19.867-123.694-24.033-240.427-126.956-337.578c-105.559-99.639-262.445-168.542-453.698-199.263
						C2074.409,2652.729,2013.693,2647.802,1955.442,2647.802z"/>
				</g>
			</g>
			<g>
				<g>
					<path style="fill:#650000;" d="M2240.396,3089.594c-39.998,0-83.939-4.949-130.447-14.819
						c-174.014-36.912-283.078-123.94-265.224-211.638c7.544-36.936,34.792-67.31,74.758-83.337
						c7.402-2.964,15.808,0.627,18.776,8.027c2.969,7.4-0.625,15.806-8.026,18.774c-30.795,12.351-51.648,35.061-57.213,62.307
						c-14.257,70.032,87.906,144.736,242.922,177.62c78.682,16.692,151.831,18.586,205.982,5.327
						c49.956-12.231,81.227-36.699,88.052-68.894c7.297-34.277-13.594-70.986-58.822-103.374c-6.484-4.641-7.976-13.66-3.333-20.144
						c4.643-6.484,13.662-7.976,20.145-3.333c55.139,39.482,80.091,86.663,70.258,132.852
						c-9.249,43.628-48.113,75.928-109.431,90.942C2302.384,3086.369,2272.673,3089.594,2240.396,3089.594z"/>
				</g>
			</g>
			<g>
				<g>
					<path style="fill:#650000;" d="M2399.281,3043.705c-0.729,0-1.465-0.056-2.207-0.168c-7.882-1.208-13.292-8.579-12.083-16.462
						c4.195-27.349,0.711-47.544-10.353-60.024c-12.982-14.646-38.039-21.174-76.622-19.937
						c-16.882,0.535-33.518-4.973-48.132-15.94c-18.966-14.229-37.781-13.848-60.915,1.277
						c-56.912,48.062-117.612-16.494-137.616-37.771c-24.725-24.624-81.948-31.887-122.129-15.205
						c-18.627,7.737-40.831,23.499-40.831,54.668c0,7.974-6.465,14.438-14.438,14.438c-7.975,0-14.438-6.465-14.438-14.438
						c0-36.216,21.371-65.862,58.633-81.335c51.406-21.345,120.452-11.589,153.916,21.755c55.21,58.716,80.896,50.815,98.783,35.388
						c0.458-0.393,0.939-0.759,1.443-1.094c33.779-22.432,65.718-22.69,94.926-0.781c9.309,6.987,19.681,10.527,29.879,10.176
						c30.426-0.986,73.805,1.047,99.153,29.644c17.029,19.209,22.844,47.322,17.286,83.56
						C2412.439,3038.593,2406.288,3043.705,2399.281,3043.705z"/>
				</g>
			</g>
			<g>
				<g>
					<path style="fill:#650000;" d="M1575.832,3199.84c-13.776,0-25.852-4.165-35.142-10.388
						c-27.74-18.586-37.646-56.013-24.728-93.242c5.12-18.057,8.243-32.424,9.827-45.186c2.255-18.181-3.566-36.357-15.97-49.868
						c-70.251-76.506-72.721-156.973-7.341-239.163c4.964-6.243,14.048-7.275,20.288-2.31c6.241,4.963,7.275,14.048,2.311,20.288
						c-55.958,70.344-53.99,136.306,6.013,201.653c18.145,19.761,26.658,46.353,23.357,72.954
						c-1.782,14.363-5.221,30.229-10.823,49.937c-0.081,0.286-0.17,0.566-0.269,0.845c-10.054,28.574-0.509,50.774,13.41,60.1
						c16.194,10.857,38.78,5.806,60.417-13.501c0.3-0.266,0.61-0.522,0.93-0.762c60.705-45.686,128.297-54.282,200.895-25.554
						c7.415,2.935,11.047,11.323,8.113,18.738c-2.933,7.417-11.328,11.052-18.738,8.113
						c-63.306-25.049-119.722-18.04-172.444,21.428C1614.644,3192.753,1593.794,3199.838,1575.832,3199.84z"/>
				</g>
			</g>
			<g>
				<g>
					<path style="fill:#650000;" d="M2201.589,3384.193c-20.167,0-39.982-8.538-58.981-25.43c-0.217-0.193-0.427-0.391-0.631-0.596
						c-58.57-58.748-90.111-39.504-100.941-32.439c-41.816,31.99-94.261,44.065-140.413,32.312
						c-40.042-10.203-71.901-38.037-89.709-78.379c-0.311-0.706-0.566-1.438-0.762-2.185
						c-32.438-124.343-85.858-134.282-133.843-127.617c-7.899,1.089-15.19-4.417-16.289-12.314
						c-1.098-7.898,4.415-15.19,12.313-16.289c83.272-11.577,135.864,35.383,165.457,147.771
						c14.412,31.943,38.583,53.035,69.963,61.03c37.23,9.48,81.722-1.074,116.119-27.559c0.294-0.227,0.597-0.442,0.907-0.645
						c40.814-26.685,87.02-14.705,137.327,35.603c14.705,12.986,28.662,18.799,42.69,17.737c30.509-2.28,63.593-37.351,91.93-71.355
						c5.107-6.128,14.211-6.953,20.336-1.848c6.127,5.105,6.954,14.209,1.849,20.334c-33.833,40.598-70.812,78.589-111.961,81.667
						C2205.161,3384.127,2203.373,3384.193,2201.589,3384.193z"/>
				</g>
			</g>
			<g>
				<g>
					<path style="fill:#650000;" d="M2453.6,3416.505c-21.401,0-42.281-12.451-62.162-37.1
						c-24.071-29.841-51.382-52.998-81.175-68.826c-23.334-12.393-45.257-21.155-67.021-26.78
						c-7.72-1.997-12.361-9.873-10.365-17.593c1.996-7.722,9.871-12.356,17.594-10.366c23.987,6.201,47.976,15.764,73.339,29.236
						c33.257,17.666,63.572,43.303,90.105,76.199c15.255,18.914,29.665,27.72,42.845,26.165
						c18.729-2.207,39.673-25.754,58.972-66.304c20.56-43.203,62.188-74.771,111.355-84.446
						c58.958-11.602,89.028-48.606,94.629-116.458c0.655-7.947,7.608-13.882,15.577-13.201c7.947,0.657,13.858,7.629,13.202,15.579
						c-6.732,81.553-45.275,128.137-117.832,142.415c-40.24,7.917-74.205,33.533-90.857,68.521
						c-24.406,51.284-51.883,79.065-81.669,82.573C2457.954,3416.376,2455.774,3416.505,2453.6,3416.505z"/>
				</g>
			</g>
			<g>
				<g>
					<path style="fill:#650000;" d="M1556.311,3245.154c9.048,11.849,11.68,27.374,8.514,41.942
						c-5.312,24.444-14.024,76.887-4.61,126.309c8.022,73.797-96.269,97.671-101.071-74.6
						C1458.823,3247.941,1525.795,3205.191,1556.311,3245.154z"/>
				</g>
			</g>
			<g style="opacity:0.55;">
				<g>
					<path style="fill:#FFFFFF;" d="M1484.476,3352.457c1.733,62.087,16.365,98.664,34.076,116.665
						c-26.808-3.272-56.889-39.658-59.392-130.333c-0.337-89.857,65.119-132.643,96.114-94.91
						C1523.22,3241.712,1484.236,3283.056,1484.476,3352.457z"/>
				</g>
			</g>
			<g>
				<g>
					<path style="fill:#650000;" d="M2444.393,3509.756c-4.727,62.877,5.274,103.306,34.461,114.494
						c16.401,6.286,35.034-0.805,44.052-15.877c60.554-101.209,15.446-155.705-31.12-150.052
						C2465.868,3461.466,2446.35,3483.721,2444.393,3509.756z"/>
				</g>
			</g>
			<g style="opacity:0.55;">
				<g>
					<path style="fill:#FFFFFF;" d="M2538.694,3477.449c-6.882-2.118-14.246-2.743-21.658-1.829
						c-25.893,3.128-45.433,25.412-47.359,51.45c-3.466,45.53,0.867,79.268,14.583,98.713c-1.828-0.337-3.61-0.866-5.39-1.54
						c-29.215-11.166-39.225-51.595-34.461-114.499c1.926-26.038,21.466-48.273,47.359-51.402
						C2509.575,3456.175,2527.143,3462.769,2538.694,3477.449z"/>
				</g>
			</g>
			<g>
				<g>
					<path style="fill:#650000;" d="M1522.587,3483.769c-7.661,0-15.425-1.841-22.762-5.559
						c-19.41-9.834-52.38-40.967-55.113-139.001c-0.244-67.6,33.525-109.751,65.002-120.457c22.169-7.539,43.88-0.945,58.073,17.642
						h-0.001c11.297,14.792,15.361,34.392,11.149,53.77c-5.472,25.181-13.339,74.326-4.536,120.54
						c0.071,0.378,0.129,0.759,0.17,1.143c2.881,26.506-6.651,50.801-24.877,63.406
						C1541.512,3480.91,1532.13,3483.769,1522.587,3483.769z M1527.592,3244.557c-2.711,0-5.571,0.51-8.58,1.533
						c-22.711,7.725-45.608,42.034-45.429,92.664c2.464,88.25,30.698,109.341,39.293,113.696c9.072,4.595,16.095,2.021,20.391-0.95
						c7.378-5.103,14.532-17.224,12.65-36.001c-9.578-51.06-1.117-104.248,4.799-131.47c2.41-11.086,0.267-22.063-5.88-30.112
						c0,0,0,0-0.001,0C1540.077,3247.687,1534.299,3244.557,1527.592,3244.557z"/>
				</g>
			</g>
			<g>
				<g>
					<path style="fill:#650000;" d="M2491.407,3641.017c-5.93,0.002-11.923-1.062-17.721-3.286
						c-34.923-13.384-49.215-55.601-43.691-129.058l0,0c2.523-33.564,27.778-60.769,60.05-64.688
						c25.414-3.081,49.807,8.284,63.698,29.663c22.034,33.909,15.31,85.718-18.447,142.136
						C2525.708,3631.811,2508.843,3641.017,2491.407,3641.017z M2498.374,3472.357c-1.599,0-3.215,0.098-4.848,0.295
						c-18.633,2.263-33.241,18.32-34.734,38.184l0,0c-3.009,40.024-1.076,89.849,25.229,99.932
						c9.566,3.669,20.956-0.552,26.494-9.81c39.595-66.177,26.487-100.073,19.013-111.577
						C2522.462,3478.507,2511.055,3472.357,2498.374,3472.357z M2444.393,3509.755h0.05H2444.393z"/>
				</g>
			</g>
			<g>
				<g>
					<path style="fill:#FFFFFF;" d="M1741.836,2713.753c-60.227,23.095-112.95,49.456-118.322,96.42
						c-0.772,6.75-9.602,8.978-13.231,3.234c-22.488-35.599,16.167-93.253,129.822-106.813
						C1744.422,2706.08,1745.895,2712.197,1741.836,2713.753z"/>
				</g>
			</g>
			<g style="opacity:0.4;">
				<g>
					<path style="fill:#650000;" d="M2735.686,3125.914c-7.893,79.461-48.562,113.681-105.788,124.943
						c-43.845,8.615-81.915,36.145-101.119,76.476c-36.674,77.055-80.23,99.916-126.098,43.028
						c-23.727-29.455-52.268-54.819-85.622-72.53c-3.08-1.637-6.16-3.225-9.24-4.765c-55.204,66.225-101.888,102.707-155.601,54.915
						c-43.365-43.509-83.503-57.61-119.552-34.028c-67.333,51.835-169.222,48.899-208.543-40.139
						c-1.733-6.642-3.562-12.995-5.391-19.107c2.647,1.444,5.631,3.754,9,7.027c67.38,65.311,151.606-19.589,151.606-19.589
						c108.29-69.787,123.114,34.894,179.521,45.337c12.916,2.382,20.194,0.976,23.742-2.608
						c19.642-19.843,47.453-29.222,73.754-19.853c34.728,12.371,61.906,23.231,61.906,23.231
						c76.189,57.611,130.382,74.504,145.976,20.07c16.027-82.638,51.642-100.782,51.642-100.782
						c178.703-68.007,177.26-226.64,19.493-404.091l3.224-2.455C2659.594,2887.916,2729.862,3001.501,2735.686,3125.914z"/>
				</g>
			</g>
			<g style="opacity:0.4;">
				<g>
					<path style="fill:#650000;" d="M1986.959,2742.808c0,0,10.167,13.244,14.2,29.886c4.083,16.849,18.18,29.47,35.198,32.78
						c26.005,5.057,60.352,15.773,83.831,38.405c42.441,40.91,80.961-4.783,117.041,6.417
						c36.081,11.201,90.513,44.428,136.701,28.631c46.908,46.061,64.744,89.291,27.235,127.129c0,0-7.517-69.084-93.347-71.914
						c0,0-48.129-14.862-72.996-26.092c-24.866-11.23-56.491,27.955-75.973,25.207c-19.482-2.747-37.932,9.285-63.601-12.373
						c-25.669-21.658-56.15-76.998-130.75-64.97c-74.6,12.028-90.563,86.682-90.563,86.682s-36.312-108.281,34.746-141.602
						C1979.74,2767.675,1977.334,2772.487,1986.959,2742.808z"/>
				</g>
			</g>
		</g>
		<g>
			<g>
				<g>
					<path style="fill:#F5AF41;" d="M2472.709,969.39c-11.888,13.235-24.642,26.182-38.214,38.792
						c-6.643,6.161-13.476,12.273-20.503,18.193c-14.487,12.417-29.744,24.401-45.867,36.049
						c-88.221,63.626-200.602,115.558-332.764,149.874c-39.851,10.348-78.932,18.385-117.05,24.257
						c-13.38,2.07-26.615,3.851-39.706,5.391c-11.214,1.3-22.333,2.406-33.354,3.321c-15.354,1.3-30.465,2.214-45.434,2.792
						c-112.429,4.09-213.307-12.61-296.956-47.408c-15.305-6.353-29.984-13.332-44.086-20.888
						c-9.29-4.957-18.289-10.155-27.049-15.642c-15.69-9.77-30.514-20.407-44.375-31.861
						c-60.402-49.573-102.948-114.018-122.922-191.024c-24.401-93.996-9.529-187.655,38.551-273.517
						c0.048-0.096,0.048-0.144,0.048-0.144c82.445-147.371,262.496-271.881,509.06-335.892
						c262.544-68.15,487.98-38.551,627.602,65.792c0.048,0,0.048,0.048,0.048,0.048c16.461,12.273,31.718,25.605,45.675,39.947
						c0.337,0.337,0.481,0.53,0.481,0.53c43.605,44.808,74.744,99.338,91.156,162.435c0.096,0.385,0.193,0.77,0.289,1.155
						C2610.502,730.959,2570.796,860.234,2472.709,969.39z"/>
				</g>
			</g>
			<g style="opacity:0.55;">
				<g>
					<path style="fill:#FFFFFF;" d="M1837.984,1244.928c8.23-0.337,16.508-0.722,24.835-1.251
						c-5.872,0.578-11.744,1.107-17.567,1.589c-15.354,1.3-30.465,2.214-45.434,2.792c-112.429,4.09-213.307-12.61-296.956-47.408
						c-15.305-6.353-29.984-13.332-44.086-20.888c-9.29-4.957-18.289-10.155-27.049-15.642c-15.69-9.77-30.514-20.407-44.375-31.861
						c-60.402-49.573-102.948-114.018-122.922-191.024c-24.401-93.996-9.529-187.655,38.551-273.517
						c0.048-0.096,0.048-0.144,0.048-0.144c82.445-147.371,262.496-271.881,509.06-335.892
						c73.589-19.107,144.242-30.514,210.901-34.749c-55.252,5.679-113.055,16.123-172.736,31.621
						c-246.565,64.012-426.615,188.521-509.06,335.892c0,0,0,0.048-0.048,0.144c-48.081,85.862-62.953,179.521-38.551,273.517
						c19.974,77.006,62.519,141.451,122.921,191.024c13.862,11.455,28.685,22.091,44.375,31.861
						c8.759,5.487,17.76,10.684,27.048,15.642c14.102,7.557,28.781,14.535,44.086,20.888
						C1624.677,1232.319,1725.555,1249.02,1837.984,1244.928z"/>
				</g>
			</g>
			<g style="opacity:0.3;">
				<g>
					<path style="fill:#650000;" d="M2577.342,601.637v-0.048c-0.096-0.385-0.193-0.77-0.289-1.155
						c-16.412-63.097-47.551-117.627-91.156-162.435c0,0-0.145-0.193-0.481-0.53c-14.102-14.439-29.503-27.867-46.107-40.188
						c-52.942-30.225-115.173-51.546-184.816-63.145c-115.269-19.252-250.799-11.743-398.026,26.471
						c-246.565,64.012-426.615,188.521-509.06,335.892c0,0,0,0.048-0.048,0.145c-2.358,4.668-62.664,129.563,50.68,232.271
						c0,0,33.69,27.674,33.69,154.013v81.194c8.76,5.487,17.759,10.684,27.049,15.642c14.101,7.556,28.781,14.534,44.086,20.888
						c-0.481-18.578,0-36.241,1.637-52.797c4.235-42.306,16.267-77.584,39.706-102.755c0.432-0.481,0.866-0.915,1.299-1.396
						c20.791,27.722,43.701,42.113,68.872,42.113c15.931,0,32.776-5.776,50.536-17.567c5.968-3.946,11.407-8.567,16.701-13.283
						c2.502-2.214,5.15-4.284,7.701-6.401c58.236-24.257,118.253-4.38,140.681,74.071c3.658,12.465,6.642,25.364,8.904,38.551
						c1.828,10.492,3.272,21.176,4.283,32.053c-34.508,7.316-68.295,12.802-101.312,16.653c-26.807,3.128-53.086,5.149-78.787,6.112
						c-47.215,1.733-92.407-0.24-135.098-5.679c78.402,28.203,170.425,41.391,271.832,37.734
						c14.969-0.578,30.081-1.492,45.434-2.792c4.428-0.385,8.856-0.77,13.331-1.203c2.792-0.241,5.536-0.529,8.327-0.818
						c3.898-0.434,7.797-0.867,11.696-1.3c6.689-0.77,13.379-1.637,20.118-2.551c3.176-0.433,6.401-0.866,9.578-1.348
						c3.321-0.481,6.69-0.962,10.011-1.492c38.118-5.872,77.199-13.909,117.05-24.257
						c132.162-34.316,244.543-86.247,332.764-149.874c16.123-11.647,31.38-23.631,45.867-36.049
						c2.791-2.358,5.583-4.765,8.326-7.219c4.139-3.61,8.182-7.268,12.177-10.974c3.369-3.128,6.738-6.305,10.01-9.529
						c3.321-3.177,6.545-6.401,9.722-9.626c3.177-3.225,6.305-6.498,9.385-9.77s6.112-6.546,9.096-9.866
						C2570.796,860.234,2610.454,731.007,2577.342,601.637z M1722.715,711.563c-5.053-40.958,28.637-71.712,69.643-78.643
						c22.332-3.802,45.049,1.973,64.493,13.62c53.086,31.813,90.915,10.877,95.295-30.465c2.984-28.877,25.22-45.723,65.552-19.252
						c21.08,16.556,44.905,17.904,72.483-1.637c30.322-21.513,72.53,2.07,70.22,39.177c-0.674,10.396-3.562,21.658-8.759,33.594
						C2044.168,775.19,1785.283,807.773,1722.715,711.563z M2297.76,976.128c-20.31,18.867-42.449,36.963-66.369,54.241
						c-85.14,61.413-192.804,111.948-319.047,146.216c-1.637-25.412-1.733-49.14,0.625-70.461
						c3.321-30.321,31.38-58.38,61.798-59.872c17.952-0.866,32.439-12.465,41.969-39.37c7.123-20.118,30.081-30.61,50.343-24.112
						c113.585,36.482,190.013,0.962,229.19-106.702c3.898-10.636,10.589-20.262,19.733-26.952
						c23.583-17.23,49.092-6.401,68.103,26.134C2360.857,910.576,2331.932,944.411,2297.76,976.128z"/>
				</g>
			</g>
			<g style="opacity:0.3;">
				<g>
					<path style="fill:#792937;" d="M2181.384,301.023c102.37,12.754,190.206,45.723,257.924,96.258
						c-52.942-30.225-115.173-51.546-184.816-63.145C2231.727,321.43,2207.326,310.408,2181.384,301.023z"/>
				</g>
				<g>
					<path style="fill:#650000;" d="M2438.115,399.37c-52.862-30.178-114.774-51.328-184.018-62.86l-0.778-0.273
						c-22.405-12.505-46.883-23.591-72.754-32.951l-20.194-7.306l21.311,2.655c103.121,12.847,190.283,45.387,259.065,96.716
						L2438.115,399.37z M2255.3,331.831c54.429,9.098,104.376,24.107,149.023,44.742c-57.139-34.794-125-58.354-202.495-70.278
						C2220.608,313.935,2238.524,322.488,2255.3,331.831z"/>
				</g>
			</g>
			<g>
				<g>
					<path style="fill:#FF40B2;stroke:#650000;stroke-width:4.8129;stroke-miterlimit:10;" d="M2485.896,437.998
						c0,0-0.145-0.193-0.481-0.53c-15.45-15.834-32.439-30.418-50.872-43.701c-140.008-101.36-363.134-129.419-622.452-62.087
						c-246.565,64.011-426.615,188.521-509.06,335.892c0,0,0,0.048-0.048,0.144c-2.358,4.668-62.664,129.563,50.68,232.271
						c0,0,33.69,27.674,33.69,154.013v481.675c0,25.027-0.866,50.006-1.637,75.033c-6.4,199.543,179.521,148.093,144.003-34.123
						c-21.802-114.402-54.579-238.623-66.707-344.314c-2.069-18.097-3.513-35.664-4.235-52.509
						c-0.915-21.514-0.53-41.873,1.347-60.835c4.235-42.306,16.268-77.584,39.706-102.755c0.433-0.481,0.867-0.914,1.3-1.396
						c20.792,27.722,43.701,42.113,68.872,42.113c15.931,0,32.776-5.776,50.535-17.567c5.968-3.947,11.407-8.567,16.701-13.284
						c2.503-2.214,5.15-4.283,7.701-6.401c58.236-24.257,118.253-4.38,140.681,74.07c3.658,12.465,6.642,25.364,8.904,38.551
						c6.305,36.241,7.701,75.081,5.294,115.799c-0.962,16.845-2.599,34.027-4.813,51.498c-2.455,19.54-5.631,39.465-9.385,59.679
						c-13.332,76.718,66.947,89.087,98.616,34.076c8.712-15.113,11.503-32.921,9.145-50.151
						c-4.717-34.22-10.107-68.343-14.775-101.215c-4.188-29.166-7.797-57.418-9.867-83.985c-0.048-0.048-0.048-0.096-0.048-0.144
						c-2.31-29.263-2.744-56.456-0.096-80.616c3.321-30.322,31.38-58.381,61.798-59.873c17.952-0.866,32.439-12.466,41.968-39.37
						c7.123-20.118,30.081-30.61,50.343-24.113c113.584,36.482,190.013,0.963,229.19-106.702
						c3.898-10.636,10.589-20.262,19.733-26.952c36-26.326,76.525,12.802,91.541,94.621c6.45,41.632,8.23,92.456,4.958,147.612
						c-3.465,59.151-12.706,123.21-28.204,186.211c-19.252,120.226,125.135,92.119,120.323-21.754
						c-6.16-70.894-17.76-146.263-25.748-218.698c-14.776-134.617-17.086-259.03,51.401-325.544
						C2553.277,610.829,2543.94,519.769,2485.896,437.998z M2107.266,639.033c-107.472,107.232-366.358,139.815-428.926,43.605
						c-5.054-40.958,28.636-71.712,69.642-78.643c22.333-3.802,45.049,1.973,64.494,13.62
						c53.086,31.814,90.915,10.877,95.295-30.465c2.984-28.877,25.219-45.723,65.552-19.252
						c21.081,16.556,44.905,17.904,72.483-1.637c30.321-21.513,72.53,2.07,70.22,39.177
						C2115.352,615.834,2112.463,627.097,2107.266,639.033z"/>
				</g>
			</g>
			<g style="opacity:0.55;">
				<g>
					<path style="fill:#FFFFFF;" d="M1413.342,1602.623c0.77-25.027,1.636-50.006,1.636-75.034v-481.674
						c0-47.552-4.763-81.126-10.724-104.504c-4.828-18.933-25.341-29.145-43.421-21.738l0,0
						c9.674,20.166,21.706,60.45,21.706,135.916v481.675c0,25.027-0.866,50.007-1.637,75.033
						c-3.657,114.644,56.167,146.456,100.975,118.205C1445.3,1730.02,1410.503,1690.844,1413.342,1602.623z M1813.246,1351.149
						c3.754-20.214,6.93-40.14,9.385-59.68c2.214-17.471,3.851-34.653,4.813-51.498c2.406-40.718,1.011-79.557-5.293-115.799
						c-2.263-13.187-5.246-26.086-8.904-38.551c-22.428-78.451-82.445-98.328-140.681-74.071c-0.385,0.337-0.818,0.674-1.203,1.011
						c47.311-6.594,91.011,18.337,109.445,82.733c3.658,12.465,6.642,25.364,8.904,38.551c6.305,36.241,7.701,75.081,5.294,115.798
						c-0.962,16.845-2.599,34.028-4.813,51.498c-2.455,19.54-5.631,39.466-9.385,59.68c-10.781,62.038,39.658,82.012,76.092,58.284
						C1829.321,1418.578,1805.497,1395.717,1813.246,1351.149z M1929.477,1018.53c6.497-0.914,12.562-3.369,18-7.701
						C1941.173,1012.417,1935.109,1015.016,1929.477,1018.53z M2367.547,1240.549c15.498-63.001,24.739-127.061,28.204-186.211
						c3.272-55.156,1.492-105.98-4.958-147.612c-15.016-81.819-55.541-120.948-91.541-94.622c-0.962,0.722-1.925,1.444-2.84,2.262
						c26.423,5.39,50.969,42.354,61.942,102.034c6.45,41.632,8.23,92.456,4.958,147.611c-3.465,59.151-12.706,123.21-28.204,186.211
						c-11.84,73.781,38.023,91.686,77.151,68.198C2383.237,1318.614,2358.884,1294.549,2367.547,1240.549z"/>
				</g>
			</g>
			<g style="opacity:0.3;">
				<g>
					<path style="fill:#792937;" d="M2530.271,466.923c0,0-0.145-0.192-0.481-0.529c-15.45-15.834-32.439-30.418-50.872-43.701
						c-12.418-9-25.46-17.375-39.178-25.171c0,0,0-0.048-0.048-0.048c-0.145-0.096-0.241-0.144-0.385-0.192
						c16.604,12.321,32.005,25.749,46.107,40.188c0.337,0.337,0.481,0.53,0.481,0.53c43.605,44.808,74.744,99.338,91.156,162.435
						c0.096,0.385,0.193,0.77,0.289,1.155C2578.4,556.973,2561.266,510.625,2530.271,466.923z"/>
				</g>
				<g>
					<path style="fill:#650000;" d="M2579.326,619.392l-4.608-18.373c-16.085-61.844-46.552-116.134-90.547-161.343l1.244-2.208
						l-1.721,1.681c-13.949-14.282-29.335-27.695-45.732-39.872l-0.627-0.465l-11.763-8.729l14.702,4.984h1.825l0.021,1.04
						c13.33,7.633,26.18,15.918,38.212,24.637c18.512,13.341,35.733,28.136,51.181,43.968c0.476,0.476,0.682,0.764,0.682,0.764
						l0.039,0.054c32.123,45.29,48.552,92.358,47.513,136.115L2579.326,619.392z M2470.085,419.392
						c5.886,5.319,11.577,10.79,17.051,16.395c0.48,0.479,0.688,0.77,0.688,0.77c40.061,41.139,69.116,89.969,86.384,145.185
						c-3.539-36.935-19.173-75.725-45.847-113.354c-15.556-15.956-32.561-30.564-50.85-43.744
						C2475.07,422.875,2472.593,421.123,2470.085,419.392z"/>
				</g>
			</g>
			<g style="opacity:0.55;">
				<g>
					<path style="fill:#FFFFFF;" d="M2485.896,437.998c0,0-0.145-0.193-0.481-0.53c-132.74-136.012-379.834-181.976-673.324-105.787
						c-246.565,64.011-426.615,188.521-509.06,335.892c0,0,0,0.048-0.048,0.144c-1.828,3.658-39.417,81.386-0.673,164.312
						c-17.134-69.21,11.021-127.446,12.609-130.622c0.048-0.096,0.048-0.144,0.048-0.144
						c82.445-147.371,262.496-271.881,509.06-335.892c293.49-76.188,540.585-30.225,673.325,105.787
						c0.336,0.337,0.481,0.53,0.481,0.53c11.695,16.46,21.369,33.305,28.877,50.295
						C2519.25,493.683,2505.292,465.287,2485.896,437.998z"/>
				</g>
			</g>
			<g>
				<g>
					<path style="fill:#650000;" d="M1878.605,1256.383c-7.975,0-14.463-6.464-14.463-14.438c0-7.555,5.781-13.755,13.171-14.386
						c50.206-5.858,102.162-15.695,154.426-29.238c127.815-33.187,238.152-82.85,327.939-147.607
						c6.469-4.669,15.492-3.206,20.156,3.264c4.665,6.467,3.203,15.492-3.264,20.156c-92.702,66.86-206.281,118.047-337.58,152.14
						c-53.683,13.911-107.08,24.009-158.718,30.013C1879.719,1256.351,1879.162,1256.383,1878.605,1256.383z"/>
				</g>
			</g>
			<g>
				<g>
					<path style="fill:#650000;" d="M1387.344,1146.698c-3.223,0-6.465-1.074-9.152-3.279
						c-64.268-52.745-107.244-119.55-127.738-198.56c-24.587-94.795-10.999-192.634,39.289-282.966
						c0.197-0.444,0.46-0.967,0.686-1.37c86.653-154.894,275.469-279.846,518.033-342.819
						c290.312-75.36,547.429-34.154,687.786,110.228c46.052,47.322,77.942,104.138,94.778,168.865
						c38.535,148.536-13.568,298.39-146.709,421.966c-5.846,5.427-14.983,5.082-20.405-0.759
						c-5.425-5.845-5.085-14.981,0.759-20.405c124.993-116.014,174.146-255.776,138.406-393.541
						c-15.558-59.811-45.008-112.297-87.529-155.991c-133.031-136.847-379.694-175.128-659.829-102.411
						c-234.711,60.934-416.84,180.637-499.803,328.46c-0.111,0.234-0.245,0.512-0.403,0.829c-0.098,0.195-0.2,0.388-0.307,0.58
						c-46.798,83.84-59.523,174.468-36.797,262.084c18.926,72.969,58.663,134.703,118.105,183.489
						c6.164,5.059,7.06,14.156,2.001,20.321C1395.659,1144.896,1391.518,1146.697,1387.344,1146.698z"/>
				</g>
			</g>
			<g style="opacity:0.55;">
				<g>
					<path style="fill:#FFFFFF;" d="M2056.249,461.12c175.767,10.16,148.093,216.272-56.455,290.872
						c-197.329,82.291-494.124-5.726-294.79-206.955c-122.735,186.585,120.755,254.508,272.191,174.222
						C2212.764,594.369,2135.315,504.31,2056.249,461.12z"/>
				</g>
			</g>
			<g>
				<g>
					<path style="fill:#650000;" d="M1767.195,1263.09c-120.244,0-228.651-24.202-315.238-70.601
						c-7.029-3.767-9.673-12.518-5.907-19.547c3.767-7.025,12.518-9.672,19.546-5.907c89.967,48.21,205.356,71.221,333.7,66.593
						c7.959-0.332,14.663,5.936,14.951,13.906c0.289,7.969-5.938,14.663-13.906,14.951
						C1789.206,1262.89,1778.141,1263.09,1767.195,1263.09z"/>
				</g>
			</g>
			<g>
				<g>
					<path style="fill:#650000;" d="M1828.788,760.67c-91.277,0.001-157.905-35.17-174.246-98.112
						c-12.888-49.636,11.377-102.275,66.572-144.419c6.338-4.84,15.399-3.624,20.238,2.714c4.839,6.338,3.624,15.399-2.714,20.238
						c-46.174,35.256-66.114,75.817-56.146,114.211c17.941,69.103,123.68,95.189,251.425,62.018
						c127.745-33.167,207.441-107.394,189.501-176.495c-8.912-34.331-39.481-59.176-86.078-69.957
						c-7.769-1.798-12.609-9.553-10.812-17.323c1.798-7.767,9.546-12.596,17.323-10.812c57.587,13.325,95.77,45.585,107.518,90.836
						c22.502,86.672-63.933,173.728-210.196,211.703C1901.127,755.669,1863.203,760.669,1828.788,760.67z"/>
				</g>
			</g>
			<g>
				<g>
					<path style="fill:#650000;" d="M1678.307,697.077c-7.188,0-13.412-5.36-14.312-12.676
						c-5.649-45.905,28.668-85.714,81.596-94.659c24.395-4.119,50.782,1.375,74.31,15.474
						c22.231,13.322,42.054,16.879,55.815,10.011c9.904-4.943,16.179-15.452,17.672-29.592c2.059-19.772,11.196-34.467,25.725-41.36
						c11.797-5.595,32.155-8.134,62.135,11.555c0.343,0.226,0.675,0.465,0.997,0.718c17.137,13.473,34.159,12.834,55.187-2.079
						c18.603-13.191,42.632-14.431,62.712-3.245c20.104,11.201,31.707,32.316,30.279,55.106c-0.762,12.169-4.107,25.11-9.941,38.463
						c-3.195,7.308-11.704,10.641-19.013,7.45c-7.307-3.193-10.642-11.705-7.448-19.012c4.48-10.254,7.031-19.912,7.582-28.706
						c0.736-11.758-5.063-22.252-15.513-28.075c-10.425-5.807-22.371-5.22-31.955,1.576c-39.311,27.876-70.133,16.409-89.216,1.63
						c-14.227-9.242-26.39-12.633-33.429-9.29c-7.1,3.368-8.926,13.906-9.381,18.28c-2.529,23.959-14.739,43.057-33.499,52.419
						c-22.893,11.425-52.566,7.489-83.553-11.079c-17.633-10.566-37.047-14.746-54.655-11.77
						c-31.865,5.384-61.933,28.636-57.747,62.657c0.974,7.915-4.653,15.121-12.567,16.095
						C1679.49,697.041,1678.895,697.077,1678.307,697.077z"/>
				</g>
			</g>
			<g>
				<g>
					<path style="fill:#650000;" d="M1454.906,1752.996c-10.524,0-20.919-2.485-30.577-7.523
						c-35.867-18.71-55.201-67.998-53.044-135.227l0.237-7.64c0.684-21.965,1.392-44.678,1.392-66.93V1054
						c0-109.852-26.19-140.41-28.621-143c-0.141-0.104,0.001-0.016-0.327-0.314c-122.266-110.803-54.508-248.275-53.809-249.651
						c3.611-7.111,12.301-9.949,19.412-6.335c7.106,3.61,9.943,12.294,6.34,19.402c-2.565,5.119-58.016,119.489,47.323,215.073
						c5.511,4.823,38.559,39.017,38.559,164.825v481.675c0,22.702-0.715,45.643-1.406,67.83l-0.237,7.648
						c-1.761,54.902,12.272,95.538,37.537,108.717c13.958,7.283,30.413,5.148,45.147-5.851
						c24.885-18.577,46.547-63.71,32.714-134.672c-7.535-39.509-16.536-80.908-25.24-120.942
						c-41.334-190.117-80.376-369.691,0.42-453.641c5.53-5.745,14.671-5.92,20.416-0.391c5.746,5.53,5.921,14.669,0.391,20.415
						c-70.111,72.848-30.914,253.133,6.992,427.482c8.743,40.212,17.783,81.794,25.377,121.61
						c16.381,84.036-11.88,139.455-43.795,163.28C1486.058,1747.645,1470.346,1752.996,1454.906,1752.996z"/>
				</g>
			</g>
			<g>
				<g>
					<path style="fill:#650000;" d="M1570.005,1071.326c-7.55,0-14.984-1.067-22.287-3.204
						c-35.4-10.36-65.544-44.689-92.156-104.947c-3.221-7.294,0.081-15.819,7.375-19.041c7.295-3.22,15.82,0.081,19.041,7.375
						c22.644,51.273,47.491,81.184,73.851,88.898c17.259,5.05,35.818,0.764,56.74-13.109c4.901-3.25,9.586-7.179,15.112-12.08
						c35.857-31.797,78.427-52.273,126.525-60.859c7.848-1.412,15.35,3.826,16.752,11.676c1.401,7.85-3.826,15.35-11.676,16.752
						c-43.392,7.747-80.171,25.422-112.44,54.038c-6.436,5.707-12.013,10.364-18.314,14.541
						C1608.486,1064.653,1588.887,1071.326,1570.005,1071.326z"/>
				</g>
			</g>
			<g style="opacity:0.25;">
				<g>
					<path style="fill:#FFFFFF;" d="M1465.912,724.68c-10.122-35.363-6.948-74.364,8.758-107.625
						c15.706-33.261,43.808-60.491,77.547-75.143c7.577-3.29,17.817-2.485,26.033-1.634c8.217,0.851,16.45,3.366,22.927,8.493
						c0.065,0.051,0.129,0.103,0.194,0.155c9.869,7.944,9.096,23.115-0.962,30.819c-41.909,32.098-66.279,86.453-61.158,139.141
						c1.685,17.335-16.31,33.666-33.592,35.825C1488.376,756.87,1470.704,741.424,1465.912,724.68z"/>
				</g>
			</g>
			<g style="opacity:0.25;">
				<g>
					<path style="fill:#FFFFFF;" d="M1535.212,799.415c-3.205,13.27,1.751,27.596,10.563,38.023
						c8.812,10.427,21.057,17.408,33.696,22.568c11.503,4.696,23.771,8.091,36.19,7.698c12.419-0.393,25.054-4.921,33.45-14.08
						c8.396-9.159,11.739-23.276,6.523-34.554c-6.047-13.071-20.92-19.141-34.464-24.037c-17.281-6.247-35.46-15.446-53.387-19.348
						C1553.187,772.508,1538.463,785.955,1535.212,799.415z"/>
				</g>
			</g>
			<g>
				<g>
					<path style="fill:#650000;" d="M1830.436,1441.713c-7.196,0-14.381-1.204-21.321-3.715
						c-23.568-8.525-45.856-34.347-37.721-81.246c19.884-107.207,19.995-191.869,0.367-258.992
						c-9.307-32.577-26.091-55.45-48.563-66.234c-20.857-10.01-46.797-9.45-73.045,1.572c-7.351,3.092-15.815-0.369-18.903-7.721
						c-3.088-7.352,0.369-15.815,7.722-18.903c33.967-14.268,68.318-14.612,96.721-0.984c30.128,14.459,52.194,43.592,63.81,84.251
						c20.902,71.481,21.013,160.518,0.314,272.111c-4.288,24.728,2.849,43.104,19.122,48.992
						c15.851,5.735,39.069-0.925,52.788-24.747c6.749-11.719,9.354-26.273,7.335-40.98c-2.716-19.784-5.702-39.766-8.589-59.088
						c-11.68-78.164-22.71-151.993-16.252-210.428c4.159-37.629,38.73-70.918,75.493-72.69c8.081-0.391,19.884-3.903,29.055-29.781
						c9.648-27.22,40.323-42.036,68.374-33.024c105.776,33.981,174.856,1.961,211.193-97.896
						c5.04-13.851,13.606-25.488,24.769-33.651c15.485-11.327,33.148-13.931,49.738-7.328
						c30.254,12.041,53.773,52.495,64.525,110.989c14.346,92.843,5.392,222.634-23.297,339.275
						c-4.198,26.896,0.408,46.589,12.991,55.485c10.214,7.222,25.677,6.741,40.351-1.254c19.654-10.707,40.033-36.797,38.402-77.941
						c-3.668-42.185-9.381-86.831-14.907-130.013c-21.345-166.816-43.424-339.299,44.679-425.247
						c57.449-61.449,56.923-143.873-1.467-226.189c-4.613-6.504-3.08-15.516,3.424-20.129c6.502-4.615,15.514-3.083,20.131,3.423
						c67.142,94.655,66.688,190.474-1.247,262.888c-0.153,0.162-0.309,0.321-0.469,0.477
						c-78.032,75.808-56.87,241.182-36.406,401.111c5.577,43.58,11.344,88.645,15.061,131.512c0.018,0.212,0.031,0.425,0.042,0.639
						c2.306,54.574-26.086,89.934-53.427,104.828c-24.42,13.302-51.562,13.099-70.835-0.525
						c-12.825-9.067-33.094-32.064-24.743-84.207c0.062-0.395,0.142-0.787,0.238-1.174c27.952-113.335,36.77-239.072,23.012-328.146
						c-10.288-55.936-31.616-82.955-46.733-88.971c-7.324-2.915-14.524-1.67-22.013,3.805c-6.526,4.774-11.603,11.765-14.679,20.219
						c-41.545,114.172-127.014,154.12-247.162,115.513c-13.11-4.204-27.913,2.737-32.322,15.177
						c-11.084,31.277-29.55,47.756-54.883,48.978c-23.021,1.111-45.536,23.082-48.181,47.019
						c-6.047,54.707,4.716,126.733,16.108,202.99c2.9,19.407,5.898,39.474,8.638,59.427c2.886,21.016-0.992,42.083-10.919,59.32
						C1881.83,1426.419,1856.081,1441.71,1830.436,1441.713z"/>
				</g>
			</g>
			<g>
				<g>
					<path style="fill:#650000;" d="M2327.085,743.972c-4.988,0-9.84-2.588-12.516-7.218l-41.713-72.194
						c-3.989-6.904-1.626-15.735,5.28-19.725c6.902-3.988,15.735-1.627,19.725,5.28l41.713,72.194
						c3.989,6.904,1.626,15.735-5.28,19.725C2332.02,743.347,2329.536,743.972,2327.085,743.972z"/>
				</g>
			</g>
			<g>
				<g>
					<path style="fill:#650000;" d="M1611.565,559.477c-4.435,0-8.812-2.036-11.642-5.884l-46.016-62.549
						c-4.725-6.423-3.35-15.46,3.074-20.187c6.425-4.724,15.462-3.348,20.187,3.075l46.016,62.549
						c4.725,6.423,3.35,15.46-3.074,20.187C1617.533,558.562,1614.535,559.477,1611.565,559.477z"/>
				</g>
			</g>
			<g>
				<g>
					<path style="fill:#650000;" d="M1848.993,926.863c-5.79,0-11.251-3.505-13.468-9.227l-30.264-78.138
						c-2.88-7.437,0.813-15.798,8.25-18.679c7.44-2.879,15.798,0.815,18.679,8.25l30.264,78.138
						c2.88,7.437-0.813,15.798-8.25,18.679C1852.49,926.549,1850.726,926.863,1848.993,926.863z"/>
				</g>
			</g>
			<g>
				<g>
					<path style="fill:#FFFFFF;" d="M2061.823,868.441c-0.961,0-1.935-0.096-2.913-0.298c-7.813-1.6-12.848-9.231-11.246-17.042
						l16.819-82.089c1.601-7.814,9.23-12.859,17.042-11.246c7.813,1.6,12.848,9.231,11.246,17.042l-16.819,82.089
						C2074.553,863.732,2068.539,868.441,2061.823,868.441z"/>
				</g>
			</g>
			<g>
				<g>
					<path style="fill:#650000;" d="M2108.89,426.319c-3.924,0-7.833-1.589-10.682-4.72l-47.072-51.721
						c-5.367-5.897-4.938-15.029,0.961-20.397c5.895-5.365,15.029-4.938,20.397,0.961l47.071,51.721
						c5.367,5.897,4.938,15.029-0.961,20.397C2115.838,425.077,2112.36,426.319,2108.89,426.319z"/>
				</g>
			</g>
			<g>
				<g>
					<path style="fill:#FFFFFF;" d="M1772.43,452.423c-5.339,0-10.471-2.974-12.979-8.092c-3.507-7.162-0.544-15.811,6.617-19.318
						l92.614-45.353c7.162-3.503,15.809-0.546,19.318,6.617c3.507,7.162,0.544,15.811-6.617,19.318l-92.614,45.353
						C1776.726,451.948,1774.562,452.423,1772.43,452.423z"/>
				</g>
			</g>
			<g>
				<g>
					<path style="fill:#FFFFFF;" d="M1397.71,704.689c-7.513,0-13.852-5.814-14.388-13.424c-0.561-7.954,5.433-14.857,13.387-15.419
						l107.945-7.612c7.949-0.564,14.858,5.432,15.419,13.387c0.561,7.954-5.433,14.857-13.387,15.419l-107.945,7.612
						C1398.395,704.677,1398.05,704.689,1397.71,704.689z"/>
				</g>
			</g>
			<g>
				<g>
					<path style="fill:#650000;" d="M1558.788,870.053c-5.753,0-11.19-3.461-13.433-9.136c-2.93-7.416,0.706-15.804,8.122-18.734
						l107.945-42.656c7.418-2.927,15.804,0.706,18.735,8.121c2.93,7.416-0.706,15.804-8.122,18.734l-107.945,42.656
						C1562.349,869.727,1560.553,870.053,1558.788,870.053z"/>
				</g>
			</g>
			<g>
				<g>
					<path style="fill:#FFFFFF;" d="M2285.362,549.531c-5.752,0-11.189-3.461-13.431-9.136c-2.931-7.417,0.706-15.805,8.122-18.734
						l82.766-32.705c7.417-2.935,15.803,0.704,18.734,8.121c2.931,7.417-0.706,15.805-8.121,18.734l-82.766,32.705
						C2288.923,549.206,2287.128,549.531,2285.362,549.531z"/>
				</g>
			</g>
			<g style="opacity:0.3;">
				<g>
					<path style="fill:#650000;" d="M2485.896,682.638c-46.589,45.241-60.402,117.29-59.824,201.083
						c-21.851-16.942-49.14-27.578-81.579-28.541c-19.348-39.322-47.262-53.712-72.867-34.99
						c-9.144,6.69-15.835,16.316-19.733,26.952c-39.177,107.665-115.606,143.184-229.19,106.702
						c-20.262-6.497-43.22,3.995-50.343,24.113c-9.529,26.904-24.016,38.503-41.968,39.37
						c-30.418,1.492-58.478,29.551-61.798,59.873c-2.647,24.16-2.214,51.353,0.096,80.616
						c-6.305-26.567-20.984-94.285-19.685-141.019c1.589-59.295,79.606-59.439,79.606-59.439
						c29.936-75.418,135.339-65.792,202.72-65.792c67.381,0,46.541-62.568,109.108-126.724
						c27.819-28.541,56.118-35.375,78.979-34.172c40.236,2.118,78.643-17.664,101.842-50.535
						c78.787-111.419,89.087-208.688,9.289-287.523l3.995,1.155c18.433,13.283,35.422,27.866,50.872,43.701
						c0.337,0.337,0.481,0.53,0.481,0.53C2543.94,519.769,2553.277,610.829,2485.896,682.638z"/>
				</g>
			</g>
			<g style="opacity:0.3;">
				<g>
					<path style="fill:#650000;" d="M1702.015,554.681c0,0,57.232-40.841,122.174-58.467c18.92-5.135,38.536,6.284,43.669,25.205
						c8.656,31.906,14.219,80.559-18.868,110.629c0,0-9.225,121.95,166.446,61.387
						C1756.742,812.955,1607.598,689.736,1702.015,554.681z"/>
				</g>
			</g>
			<g style="opacity:0.3;">
				<g>
					<path style="fill:#650000;" d="M1794.524,1132.259c-2.262-13.187-5.246-26.086-8.904-38.551
						c-22.428-78.45-82.445-98.327-140.681-74.07c-2.551,2.118-5.198,4.187-7.701,6.401c-5.293,4.717-10.733,9.337-16.701,13.284
						c-17.759,11.791-34.604,17.567-50.535,17.567c-25.171,0-48.081-14.391-68.872-42.113c-0.433,0.482-0.867,0.915-1.3,1.396
						l-25.653-47.07c51.456,39.073,108.361,38.686,172.958-17.868c21.525-18.845,51.014-26.916,78.786-20.045
						C1782.426,945.168,1805.691,1011.574,1794.524,1132.259z"/>
				</g>
			</g>
		</g>
		<g>
			<g>
				<g>
					<path style="fill:#F5AF41;" d="M2577.101,2116.073c-26.23,32.15-56.214,63.578-89.905,93.852
						c-54.964,49.477-119.745,95.921-193.671,137.793c-103.285,58.477-205.03,96.932-300.565,116.328
						c-32.199,6.497-63.627,10.877-94.237,13.043c-131.777,9.626-247.046-20.503-331.224-87.739
						c-35.23-28.108-65.022-62.712-88.316-103.622c-0.145-0.241-0.289-0.53-0.434-0.77
						c-129.948-229.527,20.744-531.633,371.7-730.357c244.255-138.323,477.151-165.178,639.971-91.397
						c71.183,32.294,128.938,83.745,168.451,153.531c2.406,4.283,4.717,8.567,6.931,12.85
						C2742.713,1778.592,2707.145,1956.332,2577.101,2116.073z"/>
				</g>
			</g>
			<g style="opacity:0.3;">
				<g>
					<path style="fill:#650000;" d="M2665.802,1629.584c-0.722-1.444-1.492-2.888-2.262-4.331c-1.492-2.84-3.08-5.679-4.668-8.519
						c-4.957-8.712-10.155-17.182-15.642-25.316c-1.78-2.551-3.513-5.054-5.293-7.557c-1.974-2.791-3.947-5.534-6.016-8.23
						c-1.926-2.551-3.899-5.102-5.92-7.653c-0.048-0.048-0.048-0.096-0.096-0.144c-1.974-2.455-3.995-4.861-6.016-7.267
						c-2.118-2.551-4.284-5.053-6.498-7.556c-2.069-2.31-4.139-4.573-6.209-6.786c-0.048-0.048-0.145-0.145-0.193-0.241
						c-2.166-2.262-4.283-4.476-6.448-6.642c-1.926-1.973-3.851-3.851-5.824-5.727c-6.112-5.968-12.465-11.647-19.011-17.134
						c-1.828-1.492-3.657-2.984-5.486-4.476c-3.754-2.984-7.508-5.92-11.359-8.712c-1.539-1.155-3.08-2.31-4.668-3.417
						c-4.668-3.321-9.385-6.545-14.198-9.674c-2.117-1.348-4.235-2.696-6.354-3.995c-2.31-1.443-4.668-2.887-7.027-4.235
						c-0.625-0.385-1.3-0.77-1.925-1.155c-2.503-1.444-5.054-2.888-7.605-4.284c-0.193-0.096-0.385-0.24-0.578-0.337
						c-2.599-1.395-5.246-2.791-7.941-4.187c-2.743-1.444-5.486-2.791-8.278-4.187c-0.241-0.096-0.481-0.192-0.722-0.337
						c-2.792-1.348-5.584-2.647-8.423-3.947c-0.241-0.096-0.482-0.241-0.722-0.337c-0.048,0-0.096-0.048-0.145-0.048
						c-14.871-4.716-30.177-8.663-45.77-11.888c-9.674-1.973-19.492-3.705-29.407-5.15
						c-374.058-54.385-908.29,279.918-935.916,687.667v151.943c23.294,40.91,53.086,75.514,88.316,103.622
						c0.096-107.424,37.156-177.163,108.05-152.714c28.3,9.77,51.065,31.765,62.327,59.487c5.245,12.851,9.77,28.829,11.647,47.792
						c0.77,48.658,60.883,58.188,84.563,4.524c4.717-10.685,16.267-16.99,27.626-14.198c22.428,5.535,37.829,34.653,37.829,92.697
						l-0.337,19.444l-0.481,30.707c3.851-0.289,7.653-0.578,11.503-0.915c3.417-0.288,6.786-0.625,10.203-0.963
						c1.107-0.144,2.262-0.24,3.369-0.384c2.936-0.289,5.92-0.626,8.904-1.011c0.625-0.048,1.251-0.145,1.877-0.24
						c3.513-0.434,7.075-0.867,10.684-1.396c3.899-0.53,7.846-1.107,11.792-1.733c11.84-1.828,23.824-3.946,35.905-6.401
						c95.535-19.396,197.329-57.851,300.565-116.328c73.926-41.872,138.707-88.316,193.671-137.793
						c3.562-3.225,7.123-6.45,10.588-9.674c1.251-1.155,2.455-2.262,3.658-3.417c2.744-2.551,5.439-5.15,8.134-7.701
						c1.926-1.876,3.802-3.706,5.679-5.534c0.241-0.241,0.433-0.434,0.674-0.675c2.744-2.647,5.438-5.342,8.085-8.037
						c14.247-14.342,27.674-28.877,40.284-43.557c2.262-2.647,4.524-5.294,6.689-7.941c2.118-2.455,4.14-4.861,6.113-7.316v-0.048
						C2707.145,1956.284,2742.713,1778.543,2665.802,1629.584z M1903.15,2037.045c-10.492-5.535-19.155-11.455-26.037-17.567
						c-53.471,1.444-98.665-25.364-112.959-108.483c0,0,15.93-97.557,132.403-177.114l27.144-73.878
						c0,0,69.595,80.038,5.054,115.606c18.434,23.342,48.707,42.209,94.958,19.925c0,0,7.99,25.75-6.882,50.535
						c61.941-15.16,77.632-77.583,77.632-77.583c24.064-98.953,95.392-84.563,95.392-84.563
						C2352.772,1808.095,2067.992,2048.21,1903.15,2037.045z M2226,2325.193c-60.954,34.494-121.381,62.044-180.31,82.799
						c-18.257,6.43-35.337-11.944-27.945-29.833c2.517-6.09,5.196-12.162,8.038-18.217c28.973-47.984,72.386-74.744,142.076-62.953
						c64.108,7.99,101.023-15.257,102.274-79.413c6.064-51.547,26.471-86.151,72.675-90.435c7.412-0.674,14.776-2.695,21.224-6.449
						c14.824-8.615,21.754-22.668,11.792-48.129c-2.503-6.354-3.513-13.332-1.829-19.974c3.321-12.995,11.84-25.123,25.171-31.91
						c9.433-4.765,19.589-5.872,29.118-3.995c0.048,0.048,0.048,0.048,0.048,0.048c16.267,3.177,30.754,15.064,36.722,32.006
						c8.423,23.968,13.91,49.717,16.99,76.766C2416.061,2198.132,2330.103,2266.235,2226,2325.193z M2551.544,2036.371
						c-1.203-5.198-2.311-10.251-3.321-15.16c-2.743-13.284-4.765-25.316-6.209-35.327c-2.358-15.979,2.551-32.006,12.899-44.375
						c6.979-8.326,11.936-17.471,15.449-26.615c8.615-22.332,8.904-46.974,2.791-70.172c-5.487-20.743-6.449-40.091-5.39-56.455
						c1.781-26.904,16.027-51.257,38.021-66.851c9.578-6.786,18.001-13.958,25.316-21.465
						C2653.241,1808.047,2624.845,1925.096,2551.544,2036.371z"/>
				</g>
			</g>
			<g style="opacity:0.3;">
				<g>
					<path style="fill:#792937;" d="M1899.204,2446.381l-0.481,30.707c-90.771,6.641-173.698-5.583-244.062-35.856
						C1727.624,2459.328,1810.454,2461.302,1899.204,2446.381z"/>
				</g>
				<g>
					<path style="fill:#650000;" d="M1850.849,2481.278c-72.527,0-138.654-12.673-197.139-37.837l1.53-4.546
						c73.447,18.215,155.394,19.934,243.564,5.112l2.85-0.479l-0.56,35.798l-2.196,0.161
						C1882.596,2480.683,1866.566,2481.278,1850.849,2481.278z M1683.801,2449.965c63.176,21.978,134.508,30.352,212.55,24.88
						l0.402-25.618C1820.692,2461.728,1749.232,2461.964,1683.801,2449.965z"/>
				</g>
			</g>
			<g style="opacity:0.3;">
				<g>
					<path style="fill:#792937;" d="M2490.276,1463.155c-14.871-4.716-30.177-8.663-45.77-11.888
						c-9.193-4.861-18.674-9.385-28.396-13.572C2442.147,1444.095,2466.934,1452.566,2490.276,1463.155z"/>
				</g>
				<g>
					<path style="fill:#650000;" d="M2489.548,1465.448c-14.486-4.595-29.803-8.573-45.53-11.826l-0.637-0.228
						c-9.024-4.772-18.521-9.31-28.224-13.489l1.527-4.547c26.277,6.46,51.371,15.074,74.585,25.605L2489.548,1465.448z
						 M2445.328,1448.979c1.538,0.32,3.071,0.646,4.602,0.979c-2.377-0.792-4.767-1.566-7.17-2.321
						C2443.619,1448.081,2444.476,1448.529,2445.328,1448.979z"/>
				</g>
			</g>
			<g>
				<g>
					<path style="fill:#F92140;" d="M2559.245,1703.992c74.792-52.99,81.626-131.2,11.936-190.927
						c-2.936-2.551-6.016-5.054-9.24-7.508c-28.589-21.417-60.017-38.407-93.611-51.257c-31.524-12.08-64.974-20.503-99.771-25.605
						c-374.058-54.386-908.29,279.918-935.917,687.667v202.912c0,0-0.048,86.632-20.021,186.5
						c-19.252,109.493,138.371,122.729,123.932,0c-38.503-175.719-5.054-320.154,92.456-286.56
						c28.3,9.77,51.065,31.765,62.327,59.488c5.246,12.85,9.77,28.829,11.648,47.792c0.77,48.658,60.883,58.188,84.562,4.524
						c4.717-10.685,16.268-16.99,27.626-14.198c22.428,5.535,37.829,34.653,37.829,92.696l-2.406,143.905
						c-0.722,44.039-29.215,83.793-71.568,95.874c-1.684,0.48-3.418,0.914-5.101,1.299c51.112,18.963,83.407,59.873,98.905,109.638
						c19.203,43.316,103.429,51.161,107.616-19.3c0.722-11.744-1.444-23.439-5.342-34.557
						c-31.765-91.397-43.797-180.628-27.434-266.73c0-0.048,0-0.048,0-0.096c6.257-32.824,16.605-65.167,31.573-97.028
						c28.974-47.985,72.386-74.744,142.077-62.953c64.108,7.989,101.023-15.257,102.274-79.413
						c6.064-51.546,26.471-86.151,72.675-90.435c7.412-0.673,14.775-2.695,21.225-6.449c14.824-8.615,21.754-22.669,11.792-48.129
						c-2.503-6.353-3.513-13.332-1.828-19.974c3.321-12.995,11.84-25.123,25.171-31.909c9.433-4.765,19.588-5.872,29.118-3.995
						c0.048,0.048,0.048,0.048,0.048,0.048c16.268,3.176,30.754,15.064,36.722,32.005c15.064,42.787,20.696,91.253,20.262,142.751
						c-0.289,32.151,17.76,62.376,47.359,74.937c56.311,23.872,109.445-29.792,57.514-123.45
						c-21.465-38.84-34.412-85.092-41.968-121.766c-2.744-13.284-4.765-25.316-6.209-35.327
						c-2.358-15.979,2.551-32.006,12.898-44.375c6.979-8.327,11.937-17.471,15.45-26.615c8.615-22.332,8.904-46.974,2.791-70.172
						c-5.486-20.744-6.449-40.092-5.39-56.455C2523.004,1743.939,2537.25,1719.585,2559.245,1703.992z M1856.61,2019.622
						c-47.936-25.268-58.573-58.813-27.385-78.883c7.316-4.668,15.69-7.46,24.257-8.807c37.685-5.92,58.332-20.937,58.477-47.022
						c-1.733-29.455,11.984-47.263,41.247-53.471c76.188-6.69,94.718-80.376,94.718-80.376
						c24.065-98.953,95.392-84.562,95.392-84.562C2306.231,1790.672,2021.452,2030.788,1856.61,2019.622z"/>
				</g>
			</g>
			<g style="opacity:0.55;">
				<g>
					<path style="fill:#FFFFFF;" d="M2513.667,2214.544c-29.6-12.562-47.648-42.787-47.359-74.937
						c0.434-51.498-5.198-99.964-20.262-142.75c-9.481-26.905-40.428-41.006-65.888-28.06c-13.332,6.786-21.851,18.915-25.171,31.91
						c-0.145,0.529-0.241,1.107-0.385,1.636c25.075-11.31,54.675,2.744,63.916,28.974c15.064,42.787,20.696,91.253,20.262,142.751
						c-0.289,32.151,17.76,62.376,47.359,74.937c34.123,14.439,67.043,0.482,76.188-33.642
						C2548.512,2221.908,2531.234,2222.004,2513.667,2214.544z M1900.36,2725.77c-13.476-43.22-39.611-79.798-79.75-101.023
						c-11.359,11.311-25.46,19.974-41.583,24.546c-1.684,0.48-3.418,0.914-5.101,1.299c51.112,18.963,83.407,59.873,98.905,109.638
						c17.904,40.332,92.167,49.91,105.644-5.872C1950.991,2766.487,1912.536,2753.3,1900.36,2725.77z M1842.701,2282.358
						c-11.358-2.791-22.909,3.514-27.626,14.198c-3.85,8.759-8.711,15.882-14.198,21.369c4.429-1.829,9.385-2.31,14.295-1.107
						c22.428,5.535,37.829,34.653,37.829,92.696l-2.406,143.905c-0.289,15.594-3.995,30.707-10.636,44.183
						c23.294-18.578,37.637-47.552,38.166-78.643l2.406-143.906C1880.53,2317.011,1865.129,2287.893,1842.701,2282.358z
						 M1730.512,2292.032c-1.878-18.963-6.402-34.942-11.647-47.792c-11.262-27.722-34.027-49.717-62.327-59.487
						c-40.572-13.958-70.027,2.839-87.787,39.898c16.076-11.166,36.241-13.717,60.258-5.438c28.3,9.77,51.065,31.765,62.327,59.488
						c5.246,12.85,9.77,28.829,11.648,47.792c0.77,48.658,60.883,58.188,84.562,4.524c0.722-1.588,1.588-3.128,2.599-4.524
						C1763.528,2342.327,1731.089,2327.696,1730.512,2292.032z"/>
				</g>
			</g>
			<g style="opacity:0.3;">
				<g>
					<path style="fill:#650000;" d="M2559.245,1703.992c-21.995,15.594-36.241,39.947-38.022,66.852
						c-1.059,16.363-0.096,35.711,5.39,56.455c6.113,23.198,5.823,47.84-2.791,70.172c-3.513,9.145-8.471,18.289-15.45,26.615
						c-10.347,12.369-15.257,28.396-12.898,44.375c1.444,10.011,3.465,22.043,6.209,35.327
						c-21.465-12.802-46.877-32.391-51.739-55.493c-8.663-41.343,18.289-54.963-10.877-135.194
						c-29.166-80.183-18.048-108.29-18.048-108.29c26.856-36.049,42.834-67.476,51.449-94.526
						c-22.283,8.808-44.712-0.288-56.311-27.674c-10.444-33.835-30.177-64.348-61.365-90.771
						c-19.829-16.797-15.787-48.61,7.46-60.161c2.069-1.059,4.187-2.022,6.305-2.984c34.797,5.102,68.247,13.525,99.771,25.605
						c33.595,12.85,65.022,29.84,93.611,51.257c3.224,2.455,6.305,4.958,9.24,7.508
						C2640.872,1572.792,2634.038,1651.002,2559.245,1703.992z"/>
				</g>
			</g>
			<g style="opacity:0.55;">
				<g>
					<path style="fill:#FFFFFF;" d="M1790.144,2326.492c3.754-2.262,7.412-5.102,10.733-8.567
						C1796.593,2319.706,1792.839,2322.642,1790.144,2326.492z"/>
				</g>
				<g>
					<path style="fill:#650000;" d="M1781.664,2334.416l6.509-9.302c2.913-4.165,6.986-7.417,11.781-9.409l10.613-4.409
						l-7.953,8.296c-3.304,3.447-7.081,6.462-11.227,8.962L1781.664,2334.416z"/>
				</g>
			</g>
			<g style="opacity:0.55;">
				<g>
					<path style="fill:#FFFFFF;" d="M1432.641,2116.361v202.912c0,0-0.048,86.632-20.021,186.5
						c-8.567,48.755,17.904,78.402,48.658,85.477c-14.439-14.728-22.717-37.685-17.375-68.054
						c19.974-99.868,20.021-186.5,20.021-186.5v-202.912c31.188-460.45,708.363-827.193,1071.448-646.324
						C2181.481,1267.607,1464.744,1642.339,1432.641,2116.361z M2174.598,1683.922c0,0-4.909-1.01-12.61-0.626
						c118.301,126.194-141.258,341.716-299.603,336.614c6.786,6.016,15.305,11.743,25.509,17.134
						C2052.736,2048.21,2337.514,1808.095,2174.598,1683.922z"/>
				</g>
			</g>
			<g>
				<g style="opacity:0.25;">
					<g>
						<path style="fill:#FFFFFF;" d="M1583.386,2051.225c-23.309-44.005-30.026-96.552-18.536-145.006s41.087-92.39,81.673-121.243
							c9.115-6.48,22.903-8.281,34.024-9.454c11.121-1.174,22.731-0.148,32.745,4.829c0.1,0.05,0.2,0.1,0.3,0.151
							c15.296,7.758,18.521,28.07,7.355,41.09c-46.522,54.25-63.58,133.069-42.044,201.422
							c7.086,22.489-12.176,49.159-34.463,56.858C1622.155,2087.571,1594.423,2072.061,1583.386,2051.225z"/>
					</g>
				</g>
				<g style="opacity:0.25;">
					<g>
						<path style="fill:#FFFFFF;" d="M1687.62,2120.417c-3.05,16.636,4.069,34.016,15.689,46.306
							c11.619,12.291,27.248,20.082,43.238,25.594c14.554,5.016,29.963,8.369,45.298,7.027c15.335-1.343,30.653-7.814,40.407-19.723
							c9.754-11.909,12.917-29.603,5.686-43.193c-8.381-15.753-27.197-22.235-44.29-27.358
							c-21.807-6.536-44.929-16.662-67.375-20.253C1707.999,2085.894,1690.713,2103.543,1687.62,2120.417z"/>
					</g>
				</g>
			</g>
			<g>
				<g>
					<path style="fill:#650000;" d="M2552.936,2158.715c-3.434,0-6.879-1.216-9.636-3.689c-5.936-5.325-6.432-14.453-1.107-20.391
						c150.992-168.349,189.914-359.296,104.116-510.785c-23.188-40.955-53.348-75.974-89.649-104.088l-0.687-0.543
						c-0.907-0.719-1.84-1.46-2.771-2.169c-160.417-121.196-426.984-102.004-695.639,50.115
						c-261.469,148.053-418.66,361.777-410.23,557.769c0.343,7.966-5.837,14.702-13.804,15.046
						c-7.974,0.261-14.703-5.84-15.046-13.806c-4.36-101.362,32.127-208.699,105.517-310.405
						c74.163-102.778,184.587-197.434,319.335-273.733c138.81-78.597,279.733-124.269,407.533-132.078
						c126.192-7.714,236.766,21.362,319.776,84.08c1.123,0.853,2.213,1.716,3.271,2.555l0.549,0.436
						c39.222,30.375,71.889,68.29,96.972,112.594c92.203,162.795,51.924,366.271-107.748,544.296
						C2560.838,2157.096,2556.894,2158.715,2552.936,2158.715z"/>
				</g>
			</g>
			<g>
				<g>
					<path style="fill:#650000;" d="M1851.62,2493.307c-143.8,0-261.598-47.747-340.706-138.101
						c-5.253-6.001-4.648-15.122,1.352-20.376c5.998-5.254,15.121-4.646,20.374,1.353c73.459,83.901,183.759,128.247,318.98,128.247
						c0.076,0,0.142-0.056,0.226,0c7.972,0,14.436,6.46,14.438,14.434C1866.286,2486.906,1859.825,2493.39,1851.62,2493.307z"/>
				</g>
			</g>
			<g>
				<g>
					<path style="fill:#650000;" d="M1942.79,2486.957c-7.115,0-13.311-5.261-14.291-12.507
						c-1.068-7.903,4.473-15.173,12.375-16.243c111.717-15.098,227.972-56.501,345.537-123.057
						c60.851-34.436,116.669-72.827,165.903-114.104c6.11-5.122,15.219-4.321,20.341,1.787c5.123,6.111,4.323,15.22-1.788,20.342
						c-50.58,42.405-107.854,81.807-170.231,117.107c-120.777,68.374-240.518,110.95-355.895,126.543
						C1944.087,2486.913,1943.435,2486.957,1942.79,2486.957z"/>
				</g>
			</g>
			<g>
				<g>
					<path style="fill:#650000;" d="M2054.641,1650.11c17.845-10.095,38.765-12.747,59.397-9.536
						c20.703,2.771,41.284,12.534,57.074,27.439c15.745,14.771,27.622,33.752,32.854,54.758c5.336,20.933,4.207,42.532-0.413,62.412
						c-4.73,19.941-12.786,38.521-22.651,55.652c-9.817,17.205-21.492,33.015-34.144,47.798
						c-25.388,29.546-54.894,54.739-86.276,76.829c-31.448,22.058-65.515,40.94-102.347,54.119
						c-18.468,6.414-37.593,11.511-57.446,13.928c-19.784,2.5-40.388,2.368-60.753-2.168c-20.287-4.419-40.396-14.189-55.936-29.326
						c-7.793-7.502-14.314-16.165-19.569-25.627c-5.314-9.429-9.054-19.783-11.09-30.32c-2.072-10.52-2.82-21.233-2.102-31.675
						c0.787-10.398,1.781-20.791,4.277-30.752c2.471-9.949,6.344-19.465,11.632-28.022c5.286-8.577,12.263-16.128,21.688-21.582
						c2.625-1.519,5.983-0.623,7.501,2.002c0.494,0.854,0.732,1.787,0.739,2.708v0.266c0.037,10.71-2.161,19.495-4.325,28.083
						c-2.568,8.42-4.9,16.611-7.499,24.648c-2.606,8.044-4.529,16.216-5.162,24.443c-0.637,8.228,0.048,16.326,1.549,24.131
						c1.494,7.822,4.203,15.288,8.087,22.141c3.817,6.865,8.639,13.318,14.332,18.782c11.331,11.008,26.073,18.394,42.266,21.938
						c16.182,3.608,33.545,3.877,50.814,1.672c17.306-2.092,34.539-6.653,51.378-12.5c33.66-12.036,65.664-29.663,95.402-50.542
						c29.741-20.923,57.537-44.739,80.927-71.982c11.659-13.618,22.281-28.047,31.002-43.347
						c8.795-15.237,15.684-31.394,19.589-47.869c3.816-16.45,4.495-33.269,0.549-48.706c-3.779-15.352-12.504-29.578-24.716-39.609
						c-12.169-10.024-26.918-16.223-42.937-20.276c-8.044-2-16.389-3.254-25.031-4.924c-8.685-1.543-17.625-2.871-27.241-5.466
						l-0.223-0.059c-2.748-0.742-4.375-3.569-3.633-6.318C2052.576,1651.87,2053.489,1650.767,2054.641,1650.11z"/>
				</g>
			</g>
			<g>
				<g>
					<g>
						<path style="fill:#FFFFFF;" d="M1557.853,2086.529c-4.427,0-8.799-2.031-11.628-5.866c-4.733-6.416-3.37-15.458,3.046-20.192
							l67.428-49.75c6.411-4.733,15.459-3.37,20.192,3.046c4.733,6.416,3.37,15.459-3.046,20.192l-67.428,49.75
							C1563.836,2085.612,1560.833,2086.529,1557.853,2086.529z"/>
					</g>
				</g>
			</g>
			<g>
				<g>
					<g>
						<path style="fill:#650000;" d="M2387.312,1744.132c-4.427,0-8.799-2.028-11.628-5.866c-4.733-6.418-3.37-15.456,3.046-20.192
							l67.427-49.75c6.411-4.733,15.459-3.377,20.192,3.046c4.733,6.418,3.37,15.456-3.046,20.192l-67.427,49.75
							C2393.295,1743.215,2390.292,1744.132,2387.312,1744.132z"/>
					</g>
				</g>
			</g>
			<g>
				<g>
					<g>
						<path style="fill:#FFFFFF;" d="M1979.25,1644.607c-2.153,0-4.338-0.482-6.397-1.502c-7.144-3.537-10.072-12.199-6.533-19.346
							l33.69-68.062c3.539-7.149,12.206-10.065,19.346-6.533c7.144,3.537,10.072,12.199,6.533,19.346l-33.69,68.062
							C1989.679,1641.66,1984.566,1644.607,1979.25,1644.607z"/>
					</g>
				</g>
			</g>
			<g>
				<g>
					<path style="fill:#FF40B2;" d="M1925.796,1667.727c22.174,88.179-92.231,109.174-123.602,49.599
						c-8.201-15.573-8.287-34.121-2.014-50.566c11.05-28.968,17.529-59.224,18.328-91.08c5.788-60.007,63.971-62.77,80.215-11.23
						C1903.536,1602.151,1916.345,1631.675,1925.796,1667.727z"/>
				</g>
				<g>
					<path style="fill:#650000;" d="M1862.3,1753.421c-24.434,0-49.578-10.936-62.235-34.973
						c-8.174-15.522-8.951-34.674-2.134-52.546c11.298-29.613,17.411-59.988,18.171-90.281
						c2.709-28.146,17.708-47.612,38.219-49.766c16.759-1.759,37.683,9.272,46.697,37.871c3.25,25.148,9.813,46.13,16.764,68.346
						c3.505,11.202,7.129,22.787,10.342,35.045l0.006,0.023c11.288,44.889-12.18,71.404-37.905,81.249
						C1881.579,1751.698,1871.995,1753.421,1862.3,1753.421z M1857.803,1530.487c-1.007,0-2.001,0.051-2.979,0.154
						c-14.434,1.515-30.924,14.203-33.921,45.27c-0.763,30.67-6.984,61.582-18.475,91.707c-6.324,16.58-5.634,34.289,1.895,48.586
						c16.436,31.211,55.708,38.589,84.182,27.69c30.819-11.796,43.888-40.046,34.96-75.569c-3.184-12.145-6.79-23.67-10.276-34.817
						c-7.015-22.423-13.641-43.604-16.853-68.754C1888.766,1540.855,1872.037,1530.487,1857.803,1530.487z"/>
				</g>
			</g>
			<g style="opacity:0.3;">
				<g>
					<path style="fill:#650000;" d="M1808.337,1726.661c43.172,9.337,95.392-19.444,79.75-81.627
						c-9.433-36.048-22.236-65.551-27.049-103.236c-1.588-5.054-3.562-9.578-5.92-13.572c17.182-1.54,35.52,10.684,43.605,36.241
						c4.813,37.685,17.615,67.188,27.048,103.237C1946.707,1750.917,1846.07,1774.309,1808.337,1726.661z"/>
				</g>
			</g>
			<g style="opacity:0.55;">
				<g>
					<path style="fill:#FFFFFF;" d="M1885.712,1543.401c-19.492-1.733-39.081,13.909-42.353,47.456
						c-0.771,31.861-7.267,62.134-18.289,91.108c-6.305,16.412-6.209,34.99,1.973,50.535c2.07,3.947,4.476,7.508,7.316,10.733
						c-15.497-4.813-29.262-14.824-37.396-30.322c-8.182-15.594-8.278-34.123-1.973-50.584
						c11.022-28.926,17.518-59.198,18.289-91.06C1818.38,1518.711,1863.621,1510.048,1885.712,1543.401z"/>
				</g>
			</g>
			<g>
				<g>
					<path style="fill:#FF40B2;" d="M2516.434,1451.958c-40.276-76.008-139.03-91.16-209.585-56.083
						c-23.254,11.561-27.266,43.366-7.45,60.15c31.197,26.423,50.902,56.95,61.363,90.778c14.229,33.593,44.73,39.654,71.34,18.978
						c6.972-5.417,12.654-12.341,17.147-19.942c14.357-24.287,30.303-44.883,57.408-59.703
						C2518.677,1479.564,2522.849,1464.065,2516.434,1451.958z"/>
				</g>
				<g>
					<path style="fill:#650000;" d="M2400.831,1580.135c-3.439,0-6.833-0.426-10.143-1.288
						c-13.747-3.581-25.163-14.628-32.142-31.105c-10.735-34.669-31.13-64.833-60.703-89.88
						c-9.882-8.37-14.844-21.095-13.274-34.038c1.581-13.033,9.509-24.287,21.208-30.104
						c69.477-34.539,170.583-22.527,212.782,57.112l0,0c7.146,13.485,2.324,30.27-10.748,37.417
						c-28.211,15.422-43.822,37.383-56.492,58.816c-4.956,8.384-10.927,15.32-17.742,20.618
						C2423.03,1575.877,2411.704,1580.135,2400.831,1580.135z M2385.09,1380.247c-26.968,0-53.886,6.207-77.169,17.782
						c-10.245,5.094-17.19,14.954-18.574,26.375c-1.374,11.33,2.964,22.466,11.606,29.786c30.285,25.65,51.181,56.571,62.107,91.903
						c6.393,15.06,16.394,24.855,28.841,28.097c12.292,3.2,26.046-0.459,38.722-10.309c6.336-4.923,11.906-11.405,16.553-19.265
						c13.019-22.025,29.095-44.609,58.325-60.591c10.775-5.89,14.724-19.769,8.805-30.94l0,0
						C2487.561,1402.61,2436.255,1380.247,2385.09,1380.247z"/>
				</g>
			</g>
			<g style="opacity:0.3;">
				<g>
					<path style="fill:#650000;" d="M2506.64,1486.16c-27.097,14.776-43.028,35.375-57.37,59.681
						c-4.525,7.604-10.204,14.535-17.182,19.925c-23.102,17.952-49.092,15.786-64.878-7.075c1.155-0.77,2.358-1.636,3.513-2.551
						c6.979-5.39,12.657-12.321,17.182-19.925c14.342-24.305,30.273-44.905,57.37-59.681c12.032-6.593,16.219-22.09,9.77-34.219
						c-16.893-31.958-44.183-53.135-75.323-64.349c54.434-1.443,109.205,22.092,136.687,73.975
						C2522.859,1464.069,2518.673,1479.567,2506.64,1486.16z"/>
				</g>
			</g>
			<g style="opacity:0.55;">
				<g>
					<path style="fill:#FFFFFF;" d="M2340.306,1464.454c31.188,26.423,50.921,56.936,61.364,90.771
						c3.562,8.375,8.085,15.064,13.38,19.973c-21.61,7.508-43.027-1.828-54.29-28.396c-10.444-33.835-30.177-64.349-61.364-90.771
						c-19.829-16.797-15.787-48.61,7.46-60.161c40.283-20.022,89.712-23.68,132.21-9c-31.284-2.455-63.482,3.61-91.3,17.423
						C2324.52,1415.844,2320.477,1447.657,2340.306,1464.454z"/>
				</g>
			</g>
			<g>
				<g>
					<g>
						<path style="fill:#36CFF2;" d="M2286.697,1592.166c-4.235,0-8.432-1.854-11.28-5.417c-4.987-6.225-3.976-15.311,2.247-20.295
							l62.041-49.656c6.237-4.984,15.323-3.972,20.295,2.251c4.987,6.225,3.976,15.311-2.247,20.295L2295.712,1589
							C2293.047,1591.132,2289.86,1592.166,2286.697,1592.166z"/>
					</g>
				</g>
			</g>
			<g>
				<g>
					<path style="fill:#650000;" d="M1862.455,1765.398c-28.552,0-58.081-12.943-73.037-41.345
						c-9.784-18.58-10.778-41.338-2.728-62.44c10.809-28.335,16.659-57.369,17.385-86.295c0.009-0.342,0.029-0.684,0.062-1.024
						c3.975-41.212,28.842-58.297,48.928-60.405c25.999-2.728,49.857,15.851,59.429,46.221c0.259,0.82,0.443,1.66,0.552,2.512
						c3.022,23.674,9.432,44.165,16.219,65.858c3.546,11.335,7.213,23.057,10.498,35.587c0.012,0.046,0.023,0.093,0.035,0.139
						c10.883,43.275-6.888,80.73-45.273,95.421C1884.604,1763.423,1873.601,1765.398,1862.455,1765.398z M1832.928,1576.585
						c-0.868,32.027-7.346,64.095-19.259,95.321c-5.092,13.35-4.618,27.454,1.3,38.693c13.319,25.298,45.664,31.079,69.233,22.058
						c11.797-4.514,38.093-19.525,27.606-61.344c-3.108-11.848-6.665-23.216-10.104-34.211
						c-6.743-21.554-13.712-43.828-17.126-69.457c-6.289-18.691-18.789-26.055-28.499-25.037
						C1843.795,1543.897,1834.949,1556.898,1832.928,1576.585z"/>
				</g>
			</g>
			<g>
				<g>
					<path style="fill:#650000;" d="M2400.88,1592.178c-4.463,0-8.888-0.558-13.224-1.687c-17.448-4.545-31.72-18.06-40.189-38.057
						c-0.189-0.447-0.356-0.902-0.499-1.365c-10.103-32.668-28.716-60.154-56.902-84.026
						c-12.981-10.996-19.501-27.694-17.443-44.668c2.07-17.066,12.462-31.805,27.798-39.43
						c74.527-37.051,183.181-23.787,228.771,62.252c10.212,19.27,3.21,43.319-15.609,53.607
						c-24.231,13.248-38.274,31.321-51.906,54.382c-5.73,9.692-12.7,17.766-20.716,23.995
						C2428.252,1587.056,2414.398,1592.178,2400.88,1592.178z M2374.325,1541.795c4.954,11.357,12.07,18.527,20.611,20.751
						c8.592,2.238,18.649-0.663,28.307-8.165c5.135-3.99,9.703-9.337,13.576-15.889c13.893-23.502,31.131-47.648,62.911-65.023
						c4.943-2.703,6.75-9.457,3.945-14.748c0-0.001-0.001-0.001-0.001-0.001c-37.451-70.681-127.993-80.941-190.397-49.916
						c-6.708,3.335-11.077,9.549-11.986,17.049c-0.899,7.409,1.813,14.39,7.439,19.155
						C2340.582,1471.985,2362.648,1504.545,2374.325,1541.795z"/>
				</g>
			</g>
			<g>
				<g>
					<path style="fill:#650000;" d="M1941.966,1846.417c-14.733,0-30.385-2.164-46.908-6.5c-7.714-2.024-12.325-9.917-10.302-17.631
						c2.024-7.712,9.913-12.322,17.631-10.302c35.093,9.209,64.689,6.898,87.974-6.865c33.762-19.956,43.464-57.196,43.558-57.57
						c27.006-111.029,111.379-95.353,112.228-95.184c7.817,1.578,12.876,9.193,11.299,17.009
						c-1.571,7.783-9.125,12.828-16.904,11.32c-6.031-1.104-58.65-8.19-78.59,73.79c-0.531,2.115-12.88,49.476-56.896,75.494
						C1986.529,1840.929,1965.416,1846.416,1941.966,1846.417z"/>
				</g>
			</g>
			<g>
				<g>
					<path style="fill:#650000;" d="M1856.605,2034.047c-2.269,0-4.569-0.536-6.716-1.667
						c-33.035-17.397-51.769-39.504-52.751-62.246c-0.703-16.273,7.922-31.027,24.285-41.539
						c8.562-5.502,18.597-9.183,29.828-10.942c45.16-7.066,46.202-25.063,46.266-32.384c-1.974-36.283,16.779-60.408,52.85-67.953
						c7.813-1.622,15.457,3.373,17.09,11.177c1.632,7.805-3.372,15.456-11.177,17.09c-22.29,4.662-31.235,16.167-29.908,38.471
						c0.02,0.315,0.028,0.63,0.026,0.946c-0.142,22.889-12.518,52.084-70.681,61.184c-7.234,1.133-13.521,3.389-18.682,6.707
						c-7.578,4.868-11.294,10.25-11.045,15.998c0.389,9.037,10.409,23.75,37.357,37.943c7.056,3.716,9.763,12.448,6.046,19.503
						C1866.808,2031.242,1861.793,2034.047,1856.605,2034.047z"/>
				</g>
			</g>
			<g>
				<g>
					<path style="fill:#650000;" d="M1928.574,2807.804c-29.175,0.002-57.853-16.716-68.921-41.699
						c-0.225-0.508-0.42-1.025-0.585-1.553c-10.764-34.543-35.146-80.007-90.171-100.435c-5.994-2.224-9.811-8.125-9.382-14.504
						c0.43-6.377,5.001-11.714,11.238-13.118c1.436-0.322,2.864-0.688,4.28-1.094c35.372-10.093,60.513-43.896,61.146-82.209
						l2.384-143.916c-0.001-44.88-10.037-74.292-26.847-78.438c-4.281-1.06-8.998,1.531-10.975,6.016
						c-16.29,36.899-47.286,48.604-70.778,43.845c-24.532-4.976-40.722-25.879-41.389-53.342
						c-1.55-15.212-5.114-29.741-10.594-43.188c-9.879-24.25-29.451-42.949-53.698-51.301c-21.272-7.332-38.353-4.895-52.216,7.446
						c-39.499,35.161-48.103,140.598-21.41,262.368c0.101,0.464,0.18,0.933,0.236,1.404c4.931,41.914-8.361,75.698-36.467,92.686
						c-25.361,15.332-58.04,14.075-83.252-3.198c-27.595-18.904-39.54-51.816-32.773-90.3
						c19.482-97.522,19.818-183.162,19.819-184.016v-202.871c0-7.974,6.464-14.438,14.438-14.438s14.439,6.465,14.439,14.438
						v202.888c-0.004,3.608-0.313,89.216-20.317,189.329c-4.659,26.516,2.869,48.923,20.714,61.147
						c15.648,10.718,36.543,11.648,51.995,2.307c18.12-10.952,26.206-33.633,22.805-63.911
						c-29.111-133.394-17.128-246.938,30.574-289.402c15.16-13.491,41.487-26.738,80.825-13.179
						c32.121,11.067,58.012,35.745,71.033,67.708c6.597,16.189,10.851,33.618,12.644,51.804c0.039,0.396,0.062,0.796,0.068,1.194
						c0.217,14.084,7.046,23.853,18.268,26.128c12.164,2.471,28.812-4.993,38.618-27.207c7.686-17.41,26.323-26.829,44.305-22.39
						c22.268,5.488,48.811,28.459,48.811,106.714l-2.385,144.155c-0.677,40.911-22.601,78.018-55.822,98.052
						c36.244,22.214,62.615,57.395,77.131,103.357c7.751,16.431,30.098,26.768,50.227,23.142
						c12.528-2.263,27.806-10.718,29.445-38.14c0.538-8.999-0.994-18.745-4.551-28.97c-49.032-140.947-47.499-263.521,4.688-374.727
						c0.214-0.457,0.452-0.901,0.712-1.331c34.94-57.866,87.597-81.348,156.524-69.778c30.633,3.765,53.077-0.305,66.72-12.117
						c12.144-10.515,18.546-28.445,19.031-53.289c0.01-0.471,0.042-0.94,0.096-1.406c7.512-63.853,36.339-98.55,85.681-103.125
						c5.804-0.527,11.085-2.1,15.295-4.55c5.681-3.302,14.258-8.286,5.608-30.389c-3.848-9.767-4.674-19.731-2.378-28.784
						c4.591-18.003,16.481-33.022,32.625-41.226c15.262-7.755,33.302-8.487,49.496-2.003c17.088,6.841,30.408,20.746,36.546,38.148
						c14.675,41.611,21.573,89.91,21.089,147.654c-0.245,27.329,14.892,51.477,38.562,61.523
						c18.771,7.957,36.578,5.374,47.633-6.914c13.455-14.951,18.315-48.086-8.389-96.245
						c-30.803-55.677-44.443-125.391-49.834-161.991c-2.908-19.711,2.964-40.029,16.11-55.744
						c5.381-6.42,9.767-13.996,13.045-22.528c7.179-18.61,7.975-39.806,2.307-61.315c-5.217-19.722-7.181-40.272-5.837-61.066
						c2.051-30.98,18.118-59.292,44.081-77.699c34.462-24.42,53.741-55.076,54.293-86.318c0.56-31.746-17.423-62.472-52.006-88.859
						c-6.339-4.838-7.557-13.899-2.721-20.238c4.836-6.34,13.896-7.559,20.238-2.72c41.577,31.724,64.08,71.615,63.362,112.325
						c-0.718,40.663-24.323,79.503-66.467,109.369c-18.839,13.357-30.491,33.777-31.964,56.024
						c-1.142,17.655,0.521,35.094,4.943,51.809c7.228,27.434,6.092,54.768-3.28,79.061c-4.418,11.499-10.427,21.832-17.854,30.693
						c-7.856,9.391-11.388,21.421-9.68,32.993c5.105,34.667,17.938,100.535,46.527,152.21
						c28.924,52.168,30.644,100.603,4.592,129.553c-19.39,21.548-50.188,26.978-80.376,14.182
						c-34.469-14.631-56.511-49.312-56.162-88.359c0.456-54.326-5.905-99.402-19.446-137.798
						c-3.372-9.56-10.677-17.194-20.045-20.945c-8.594-3.44-17.716-3.108-25.681,0.94c-8.73,4.436-15.189,12.672-17.721,22.599
						c-1.004,3.961,0.137,8.231,1.272,11.113c14.617,37.35-1.707,56.451-17.97,65.905c-7.937,4.619-17.081,7.427-27.173,8.345
						c-23.673,2.195-51.832,12.954-59.562,77.068c-0.779,33.008-10.529,57.844-28.985,73.826
						c-20.134,17.434-50.242,23.792-89.496,18.904c-0.208-0.027-0.417-0.056-0.623-0.093c-57.553-9.736-97.9,7.915-126.92,55.54
						c-48.508,103.865-49.563,219.102-3.232,352.28c4.816,13.84,6.869,27.361,6.102,40.183
						c-2.089,34.963-21.952,59.202-53.137,64.834C1937.369,2807.426,1932.964,2807.804,1928.574,2807.804z"/>
				</g>
			</g>
			<g>
				<g>
					<path style="fill:#F92140;" d="M2562.467,2475.077c4.727-62.877-5.274-103.306-34.461-114.494
						c-16.401-6.286-35.034,0.804-44.052,15.877c-60.554,101.209-15.446,155.705,31.12,150.052
						C2540.992,2523.368,2560.509,2501.112,2562.467,2475.077z"/>
				</g>
				<g>
					<path style="fill:#650000;" d="M2508.353,2529.33c-18.367,0-34.894-8.921-45.145-24.7
						c-19.436-29.912-12.627-77.078,18.68-129.404c9.84-16.445,29.595-23.56,46.979-16.887c29.294,11.226,41.069,49.47,36,116.919
						l0,0c-2.094,27.856-22.915,50.417-49.504,53.645C2513.004,2529.188,2510.663,2529.33,2508.353,2529.33z M2515.737,2360.741
						c-11.721,0-23.32,6.262-29.718,16.956c-30.328,50.691-37.173,96.001-18.776,124.312c10.518,16.187,28.297,24.453,47.539,22.117
						c24.316-2.952,43.362-23.655,45.284-49.229c4.822-64.141-6.255-101.843-32.922-112.065
						C2523.45,2361.415,2519.586,2360.741,2515.737,2360.741z"/>
				</g>
			</g>
			<g style="opacity:0.3;">
				<g>
					<path style="fill:#650000;" d="M2562.469,2475.066c-1.973,26.038-21.465,48.321-47.406,51.45
						c-24.691,2.983-48.996-10.925-57.322-39.803c9.193,4.765,19.685,6.593,30.225,5.294c25.894-3.128,45.434-25.364,47.407-51.402
						c2.455-32.824,0.914-59.535-5.343-79.172C2557.656,2373.707,2567.09,2413.702,2562.469,2475.066z"/>
				</g>
			</g>
			<g style="opacity:0.55;">
				<g>
					<path style="fill:#FFFFFF;" d="M2551.208,2381.744c-0.241-0.096-0.482-0.193-0.723-0.289
						c-16.412-6.304-35.037,0.77-44.086,15.883c-34.316,57.37-34.701,99.723-20.022,124.606
						c-32.343-15.257-50.006-65.937-2.406-145.494c9-15.064,27.626-22.139,44.038-15.883
						C2537.876,2364.37,2545.528,2371.493,2551.208,2381.744z"/>
				</g>
			</g>
			<g>
				<g>
					<path style="fill:#650000;" d="M2508.591,2541.344c-22.349,0-43.089-11.099-55.474-30.159
						c-22.033-33.909-15.311-85.718,18.446-142.136c12.849-21.475,38.764-30.706,61.609-21.946
						c34.923,13.384,49.215,55.598,43.692,129.055c0,0,0,0,0,0.002c-2.524,33.564-27.781,60.769-60.052,64.685
						C2514.056,2541.181,2511.312,2541.344,2508.591,2541.344z M2515.646,2372.75c-7.568,0-15.11,4.119-19.302,11.123
						c-39.595,66.179-26.486,100.076-19.011,111.58c7.957,12.241,21.414,18.489,36,16.726c18.634-2.261,33.242-18.32,34.736-38.186
						c3.009-40.02,1.073-89.844-25.231-99.927C2520.513,2373.175,2518.076,2372.75,2515.646,2372.75z M2562.467,2475.077h0.05
						H2562.467z"/>
				</g>
			</g>
			<g>
				<g>
					
						<ellipse transform="matrix(0.2912 -0.9567 0.9567 0.2912 -702.5555 3302.8662)" style="fill:#FFFFFF;" cx="1877.667" cy="2125.554" rx="27.674" ry="21.056"/>
				</g>
			</g>
			<g>
				<g>
					
						<ellipse transform="matrix(0.2912 -0.9567 0.9567 0.2912 26.533 3414.7373)" style="fill:#650000;" cx="2317.708" cy="1689.463" rx="27.674" ry="21.056"/>
				</g>
			</g>
			<g>
				<g>
					
						<ellipse transform="matrix(0.2912 -0.9567 0.9567 0.2912 -687.7321 2922.8215)" style="fill:#650000;" cx="1628.599" cy="1925.526" rx="27.674" ry="21.056"/>
				</g>
			</g>
			<g>
				<g>
					
						<ellipse transform="matrix(0.866 -0.5 0.5 0.866 -729.8593 1332.5125)" style="fill:#66D4F1;" cx="2121.59" cy="2028.202" rx="21.056" ry="27.674"/>
				</g>
			</g>
			<g>
				<g>
					
						<ellipse transform="matrix(0.2912 -0.9567 0.9567 0.2912 -838.7798 3077.5068)" style="fill:#AC92EA;" cx="1657.476" cy="2104.807" rx="19.241" ry="14.64"/>
				</g>
			</g>
			<g>
				<g>
					<path style="fill:#FFFFFF;" d="M2307.385,1855.116c-3.094,10.166-11.873,16.498-19.608,14.143
						c-7.735-2.354-11.497-12.504-8.402-22.67c3.094-10.166,11.873-16.498,19.608-14.143
						C2306.718,1834.801,2310.48,1844.951,2307.385,1855.116z"/>
				</g>
			</g>
			<g>
				<g>
					
						<ellipse transform="matrix(0.973 -0.2308 0.2308 0.973 -296.1767 544.236)" style="fill:#36CFF2;" cx="2178.046" cy="1538.015" rx="19.241" ry="14.64"/>
				</g>
			</g>
			<g>
				<g>
					<g>
						<path style="fill:#36CFF2;" d="M1687.282,1798.196c-4.714,0-9.334-2.305-12.107-6.55c-4.357-6.679-2.477-15.625,4.202-19.982
							l62.68-40.91c6.669-4.357,15.618-2.484,19.985,4.2c4.357,6.679,2.477,15.625-4.202,19.982l-62.68,40.91
							C1692.724,1797.435,1689.989,1798.196,1687.282,1798.196z"/>
					</g>
				</g>
			</g>
			<g>
				<g>
					<g>
						<path style="fill:#9BDB52;" d="M2234.023,2003.22c-5.837,0-11.337-3.567-13.513-9.358l-30.485-81.006
							c-2.811-7.464,0.964-15.79,8.427-18.598c7.44-2.808,15.792,0.964,18.598,8.427l30.485,81.006
							c2.811,7.464-0.964,15.792-8.427,18.598C2237.435,2002.919,2235.715,2003.22,2234.023,2003.22z"/>
					</g>
				</g>
			</g>
			<g>
				<g>
					<g>
						<path style="fill:#36CFF2;" d="M1749.166,2232.664c-0.362,0-0.724-0.014-1.09-0.042c-7.953-0.592-13.917-7.52-13.32-15.473
							l6.044-81.006c0.592-7.953,7.492-13.931,15.473-13.32c7.953,0.592,13.917,7.52,13.32,15.473l-6.044,81.006
							C1762.984,2226.888,1756.653,2232.664,1749.166,2232.664z"/>
					</g>
				</g>
			</g>
			<g>
				<g>
					<g>
						<path style="fill:#650000;" d="M2057.252,2184.07c-3.614,0-7.229-1.349-10.035-4.056l-67.084-64.824
							c-5.734-5.541-5.889-14.683-0.348-20.417c5.551-5.725,14.678-5.885,20.417-0.348l67.084,64.824
							c5.734,5.541,5.889,14.683,0.348,20.417C2064.801,2182.594,2061.031,2184.07,2057.252,2184.07z"/>
					</g>
				</g>
			</g>
			<g style="opacity:0.3;">
				<g>
					<path style="fill:#650000;" d="M2381.745,1999.263c-9.53-1.877-19.685-0.77-29.118,3.995
						c-13.332,6.786-21.851,18.915-25.171,31.909c-1.685,6.642-0.675,13.621,1.828,19.974c9.963,25.46,3.033,39.514-11.792,48.129
						c-6.45,3.754-13.813,5.776-21.225,6.449c-46.204,4.284-66.61,38.889-72.675,90.435c-1.251,64.156-38.166,87.402-102.274,79.413
						c-69.69-11.791-113.103,14.968-142.077,62.953c-14.968,31.861-25.316,64.204-31.573,97.028
						c-16.797-137.023,0.819-180.435,114.211-207.436c113.391-27,99.963-56.407,109.589-109.349
						c9.626-52.894,57.755-51.353,77.006-64.204c19.251-12.803,20.84-38.936,20.84-38.936
						C2311.863,1957.728,2379.291,1997.819,2381.745,1999.263z"/>
				</g>
			</g>
			<g style="opacity:0.3;">
				<g>
					<path style="fill:#650000;" d="M2047.923,1953.493c-94.621,61.364-254.362,128.312-283.768-42.498
						c0,0,15.93-97.557,132.403-177.114l27.144-73.878c0,0,69.595,80.038,5.054,115.606c18.434,23.342,48.707,42.209,94.958,19.925
						c0,0,15.786,50.873-38.359,78.547C1985.355,1874.08,1977.895,1962.396,2047.923,1953.493z"/>
				</g>
			</g>
		</g>
	</g>
</g>
</svg>